<svg xmlns="http://www.w3.org/2000/svg" xmlns:xlink="http://www.w3.org/1999/xlink" width="64" height="64" viewBox="0 0 64 64" id="tools"><defs><path id="a" d="M.06 64V.04H64V64z"></path></defs><g fill="none" fill-rule="evenodd"><g><path fill="#FFFFFE" d="M46.828 22.828A3.987 3.987 0 0 1 44 24a4 4 0 0 1-2.828-6.828l6.475-6.476A9.951 9.951 0 0 0 44 10c-5.523 0-10 4.477-10 10 0 1.288.252 2.516.696 3.647L23.647 34.696A9.955 9.955 0 0 0 20 34c-5.523 0-10 4.477-10 10 0 1.289.252 2.516.696 3.647l6.476-6.475A3.987 3.987 0 0 1 20 40a4 4 0 0 1 2.828 6.828l-6.475 6.476A9.955 9.955 0 0 0 20 54c5.523 0 10-4.477 10-10a9.951 9.951 0 0 0-.696-3.647l11.049-11.049A9.951 9.951 0 0 0 44 30c5.523 0 10-4.477 10-10a9.955 9.955 0 0 0-.696-3.647l-6.476 6.475"></path><path fill="#FFFFFE" d="M21.005 23.95l.007-.008 5.313 5.248 2.863-2.863-5.323-5.257-3.037-5.898-5.911-3.044-2.867 2.867 3.044 5.911 5.911 3.044"></path><g><mask id="b" fill="#fff"><use xlink:href="#a"></use></mask><path fill="#FFFFFE" d="M39.071 33.414l-5.657 5.657L44.243 49.9a4 4 0 0 0 5.657-5.657L39.071 33.414" mask="url(#b)"></path><path fill="#4C5665" d="M44 30a9.951 9.951 0 0 1-3.647-.696L29.304 40.353A9.951 9.951 0 0 1 30 44c0 5.523-4.477 10-10 10a9.955 9.955 0 0 1-3.647-.696l6.475-6.476a4 4 0 1 0-5.656-5.656l-6.476 6.475A9.951 9.951 0 0 1 10 44c0-5.523 4.477-10 10-10 1.288 0 2.516.252 3.647.696l11.049-11.049A9.955 9.955 0 0 1 34 20c0-5.523 4.477-10 10-10 1.289 0 2.516.252 3.647.696l-6.475 6.476a4 4 0 1 0 5.656 5.656l6.476-6.475A9.955 9.955 0 0 1 54 20c0 5.523-4.477 10-10 10zm5.9 19.9a4.002 4.002 0 0 1-5.657 0L33.414 39.071l5.657-5.657L49.9 44.243a4 4 0 0 1 0 5.657zM14.917 12.128l5.911 3.044 3.037 5.898 5.323 5.257-2.863 2.863-5.313-5.248-.007.008-5.911-3.044-3.044-5.911 2.867-2.867zM32 0C14.327 0 0 14.327 0 32c0 17.673 14.327 32 32 32 17.673 0 32-14.327 32-32C64 14.327 49.673 0 32 0z" mask="url(#b)"></path></g></g></g></svg>