<svg width="85" height="594" viewBox="0 0 85 594" fill="none" xmlns="http://www.w3.org/2000/svg">
<g clip-path="url(#clip0_248_71)">
<path fill-rule="evenodd" clip-rule="evenodd" d="M67.9551 522.89C67.8781 522.812 67.8075 522.727 67.7433 522.635C69.0909 522.165 70.2781 521.413 71.3048 520.38C73.1016 518.445 74 516.235 74 513.75V504.375C74 503.721 73.7754 503.166 73.3262 502.708C72.877 502.25 72.338 502.022 71.7091 502.022C70.9262 502.022 70.2332 501.734 69.6299 501.159C69.0781 500.583 68.5198 500.015 67.9551 499.452C67.3904 498.864 67.108 498.158 67.108 497.334C67.108 496.693 66.8834 496.144 66.4342 495.686C65.985 495.229 65.4396 495 64.7979 495L63.8545 495.098C63.2257 495.163 62.4428 495.392 61.5059 495.785C60.5818 496.177 59.6449 496.831 58.6952 497.746C56.8984 499.681 56 501.891 56 504.375L56 513.75C56 514.391 56.2246 514.94 56.6738 515.398C57.123 515.856 57.6684 516.084 58.3102 516.084C59.1187 516.098 59.8053 516.392 60.3701 516.967C60.9348 517.529 61.493 518.098 62.0449 518.673L62.2759 518.909C61.1337 519.249 59.9401 520.007 58.6952 521.184C56.9112 523.119 56.0193 525.329 56.0193 527.813L56.0193 537.189C56.0193 537.829 56.2438 538.378 56.693 538.836C57.1422 539.294 57.6813 539.523 58.3102 539.523C59.1187 539.536 59.8118 539.83 60.3893 540.405C60.9412 540.967 61.493 541.536 62.0449 542.112C62.2647 542.335 62.4426 542.578 62.5788 542.84C62.247 542.945 61.8893 543.079 61.5059 543.239C60.5818 543.631 59.6449 544.285 58.6952 545.2C56.8984 547.136 56 549.345 56 551.83L56 561.205C56 561.846 56.2246 562.395 56.6738 562.853C57.123 563.31 57.6684 563.539 58.3102 563.539C59.1187 563.552 59.8053 563.846 60.3701 564.422C60.9348 564.984 61.493 565.553 62.0449 566.128L62.2759 566.363C61.1337 566.703 59.9401 567.462 58.6952 568.638C56.9112 570.574 56.0193 572.783 56.0193 575.268L56.0193 584.643C56.0193 585.284 56.2438 585.833 56.693 586.291C57.1422 586.748 57.6813 586.977 58.3102 586.977C59.1187 586.99 59.8118 587.284 60.3893 587.86C60.9412 588.422 61.493 588.991 62.0449 589.566C62.6096 590.141 62.8984 590.841 62.9112 591.665C62.9112 592.175 63.0332 592.606 63.277 592.959C63.5209 593.312 63.8032 593.574 64.1241 593.744C64.4449 593.927 64.7401 594.012 65.0096 593.999C67.4481 593.92 69.5465 593.011 71.3048 591.272C73.1016 589.337 74 587.127 74 584.643V575.268C74 574.614 73.7754 574.058 73.3262 573.601C72.877 573.143 72.338 572.914 71.7091 572.914C70.9262 572.914 70.2332 572.627 69.6299 572.051C69.0781 571.476 68.5198 570.907 67.9551 570.345C67.8781 570.266 67.8075 570.181 67.7433 570.09C69.0909 569.619 70.2781 568.867 71.3048 567.834C73.1016 565.899 74 563.689 74 561.205V551.83C74 551.176 73.7754 550.62 73.3262 550.163C72.877 549.705 72.338 549.476 71.7091 549.476C70.9262 549.476 70.2332 549.188 69.6299 548.613C69.0781 548.038 68.5198 547.469 67.9551 546.907C67.7345 546.677 67.557 546.429 67.4226 546.163C68.8618 545.736 70.1559 544.954 71.3048 543.818C73.1016 541.883 74 539.673 74 537.189V527.813C74 527.16 73.7754 526.604 73.3262 526.146C72.877 525.689 72.338 525.46 71.7091 525.46C70.9262 525.46 70.2332 525.172 69.6299 524.597C69.0781 524.021 68.5198 523.453 67.9551 522.89ZM68.0706 517.026C67.1979 517.928 66.107 518.399 64.7979 518.438C64.6824 518.438 64.477 518.392 64.1818 518.301C63.8866 518.222 63.5401 517.974 63.1422 517.555C62.5904 516.98 62.0321 516.411 61.4674 515.849C60.9027 515.274 60.6139 514.574 60.6011 513.75L60.6011 504.375C60.6267 503.081 61.0759 501.976 61.9487 501.061C62.4107 500.616 62.8535 500.296 63.277 500.099C63.7134 499.903 64.0727 499.786 64.3551 499.746L64.7979 499.688C65.6064 499.701 66.2995 499.988 66.877 500.551C67.4289 501.126 67.9872 501.695 68.5519 502.257C69.1037 502.845 69.3861 503.551 69.3989 504.375L69.3989 513.75C69.3989 515.045 68.9561 516.137 68.0706 517.026ZM64.2973 541.739C63.9636 541.66 63.5786 541.412 63.1422 540.994C62.5775 540.431 62.0192 539.862 61.4674 539.287C60.9027 538.699 60.6139 537.999 60.6011 537.189L60.6011 527.813C60.6011 526.571 61.0503 525.466 61.9487 524.499C62.4107 524.041 62.8599 523.714 63.2963 523.518C63.7326 523.335 64.092 523.224 64.3743 523.185L64.7979 523.126C65.6064 523.139 66.2995 523.426 66.877 523.989C67.4289 524.564 67.9872 525.133 68.5519 525.695C69.1037 526.283 69.3861 526.99 69.3989 527.813L69.3989 537.189C69.3989 538.483 68.9497 539.588 68.0513 540.503C67.1529 541.418 66.0684 541.876 64.7979 541.876L64.2973 541.739ZM68.0706 564.48C67.1979 565.383 66.107 565.853 64.7979 565.893C64.6824 565.893 64.477 565.847 64.1818 565.755C63.8866 565.677 63.5401 565.428 63.1422 565.01C62.5904 564.435 62.0321 563.866 61.4674 563.304C60.9027 562.728 60.6139 562.029 60.6011 561.205L60.6011 551.83C60.6267 550.535 61.0759 549.43 61.9487 548.515C62.4107 548.07 62.8535 547.75 63.277 547.554C63.7134 547.358 64.0727 547.24 64.3551 547.201L64.7979 547.142C65.6064 547.155 66.2995 547.443 66.877 548.005C67.4289 548.58 67.9872 549.149 68.5519 549.711C69.1037 550.3 69.3861 551.006 69.3989 551.83L69.3989 561.205C69.3989 562.499 68.9561 563.591 68.0706 564.48ZM64.2973 589.193C63.9636 589.115 63.5786 588.866 63.1422 588.448C62.5775 587.886 62.0192 587.317 61.4674 586.742C60.9027 586.153 60.6139 585.454 60.6011 584.643L60.6011 575.268C60.6011 574.026 61.0503 572.921 61.9487 571.953C62.4107 571.495 62.8599 571.169 63.2963 570.972C63.7326 570.789 64.092 570.678 64.3743 570.639L64.7979 570.58C65.6064 570.593 66.2995 570.881 66.877 571.443C67.4289 572.019 67.9872 572.587 68.5519 573.15C69.1037 573.738 69.3861 574.444 69.3989 575.268L69.3989 584.643C69.3989 585.938 68.9497 587.042 68.0513 587.958C67.1529 588.873 66.0684 589.331 64.7979 589.331L64.2973 589.193Z" fill="white"/>
<path fill-rule="evenodd" clip-rule="evenodd" d="M65.5 365C75.7173 365 84 356.717 84 346.5C84 336.283 75.7173 328 65.5 328C55.2827 328 47 336.283 47 346.5C47 356.717 55.2827 365 65.5 365ZM65.5 366C76.2696 366 85 357.27 85 346.5C85 335.73 76.2696 327 65.5 327C54.7304 327 46 335.73 46 346.5C46 357.27 54.7304 366 65.5 366Z" fill="white"/>
<path fill-rule="evenodd" clip-rule="evenodd" d="M65 378L65 315L66 315L66 378L65 378Z" fill="white"/>
<path fill-rule="evenodd" clip-rule="evenodd" d="M46.4902 346L84.4902 346L84.4902 347L46.4902 347L46.4902 346Z" fill="white"/>
<path d="M55 77.9706C55 76.5687 56.0784 75.4902 57.4804 75.4902L63.5196 75.4902C64.9216 75.4902 66 76.5687 66 77.9706L66 83.7942C66 85.1961 67.0784 86.2746 68.4804 86.2746L74.5196 86.2746C75.9216 86.2746 77 87.353 77 88.7549L77 94.5785C77 95.9804 75.9216 97.0589 74.5196 97.0589L68.4804 97.0589C67.0784 97.0589 66 95.9804 66 94.5785L66 88.7549C66 87.353 64.9216 86.2746 63.5196 86.2746L57.4804 86.2746C56.0784 86.2746 55 85.1961 55 83.7942L55 77.9706Z" fill="white"/>
<path d="M55 52.8082C55 51.4062 56.0784 50.3278 57.4804 50.3278L63.5196 50.3278C64.9216 50.3278 66 51.4062 66 52.8082L66 58.6317C66 60.0337 67.0784 61.1121 68.4804 61.1121L74.5196 61.1121C75.9216 61.1121 77 62.1905 77 63.5925L77 69.416C77 70.818 75.9216 71.8964 74.5196 71.8964L68.4804 71.8964C67.0784 71.8964 66 70.818 66 69.416L66 63.5925C66 62.1905 64.9216 61.1121 63.5196 61.1121L57.4804 61.1121C56.0784 61.1121 55 60.0337 55 58.6317L55 52.8082Z" fill="white"/>
<path d="M55 27.6443C55 26.2423 56.0784 25.1639 57.4804 25.1639L63.5196 25.1639C64.9216 25.1639 66 26.2423 66 27.6443L66 33.4678C66 34.8698 67.0784 35.9482 68.4804 35.9482L74.5196 35.9482C75.9216 35.9482 77 37.0266 77 38.4286L77 44.2521C77 45.6541 75.9216 46.7325 74.5196 46.7325L68.4804 46.7325C67.0784 46.7325 66 45.6541 66 44.2521L66 38.4286C66 37.0266 64.9216 35.9482 63.5196 35.9482L57.4804 35.9482C56.0784 35.9482 55 34.8698 55 33.4678L55 27.6443Z" fill="white"/>
<path d="M55 2.4804C55 1.07844 56.0784 6.89377e-06 57.4804 7.01634e-06L63.5196 7.5443e-06C64.9216 7.66687e-06 66 1.07844 66 2.4804L66 8.30393C66 9.70589 67.0784 10.7843 68.4804 10.7843L74.5196 10.7843C75.9216 10.7843 77 11.8627 77 13.2647L77 19.0882C77 20.4902 75.9216 21.5686 74.5196 21.5686L68.4804 21.5686C67.0784 21.5686 66 20.4902 66 19.0882L66 13.2647C66 11.8627 64.9216 10.7843 63.5196 10.7843L57.4804 10.7843C56.0784 10.7843 55 9.70589 55 8.30392L55 2.4804Z" fill="white"/>
<path d="M74 274.38C74 273.6 74.5882 273 75.3529 273H78.6471C79.4118 273 80 273.6 80 274.38V277.62C80 278.4 79.4118 279 78.6471 279H75.3529C74.5882 279 74 279.6 74 280.38V283.62C74 284.4 73.4118 285 72.6471 285H69.3529C68.5882 285 68 285.6 68 286.38V289.62C68 290.4 68.5882 291 69.3529 291H72.6471C73.4118 291 74 291.6 74 292.38V295.62C74 296.4 74.5882 297 75.3529 297H78.6471C79.4118 297 80 297.6 80 298.38V301.62C80 302.4 79.4118 303 78.6471 303H75.3529C74.5882 303 74 302.4 74 301.62V298.38C74 297.6 73.4118 297 72.6471 297H69.3529C68.5882 297 68 296.4 68 295.62V292.38C68 291.6 67.4118 291 66.6471 291H63.3529C62.5882 291 62 291.6 62 292.38V295.62C62 296.4 61.4118 297 60.6471 297H57.3529C56.5882 297 56 297.6 56 298.38V301.62C56 302.4 55.4118 303 54.6471 303H51.3529C50.5882 303 50 302.4 50 301.62V298.38C50 297.6 50.5882 297 51.3529 297H54.6471C55.4118 297 56 296.4 56 295.62V292.38C56 291.6 56.5882 291 57.3529 291H60.6471C61.4118 291 62 290.4 62 289.62V286.38C62 285.6 61.4118 285 60.6471 285H57.3529C56.5882 285 56 284.4 56 283.62V280.38C56 279.6 55.4118 279 54.6471 279H51.3529C50.5882 279 50 278.4 50 277.62V274.38C50 273.6 50.5882 273 51.3529 273H54.6471C55.4118 273 56 273.6 56 274.38V277.62C56 278.4 56.5882 279 57.3529 279H60.6471C61.4118 279 62 279.6 62 280.38V283.62C62 284.4 62.5882 285 63.3529 285H66.6471C67.4118 285 68 284.4 68 283.62V280.38C68 279.6 68.5882 279 69.3529 279H72.6471C73.4118 279 74 278.4 74 277.62V274.38Z" fill="white"/>
<path d="M54.1934 225.229C55.3884 224.034 57.2088 224.016 58.3804 225.188L63.4272 230.235C64.5988 231.406 66.4192 231.388 67.6143 230.193L72.5781 225.229C73.7732 224.034 75.5936 224.016 76.7652 225.188L81.812 230.235C82.9836 231.406 82.9655 233.227 81.7705 234.422L76.8066 239.386C75.6116 240.581 75.5936 242.401 76.7652 243.573L81.812 248.62C82.9836 249.791 82.9655 251.612 81.7705 252.807L76.8066 257.771C75.6116 258.966 73.7912 258.984 72.6196 257.812L67.5728 252.765C66.4012 251.594 64.5808 251.612 63.3858 252.807L58.4219 257.771C57.2269 258.966 55.4064 258.984 54.2348 257.812L49.188 252.765C48.0164 251.594 48.0345 249.773 49.2295 248.578L54.1934 243.614C55.3884 242.419 55.4064 240.599 54.2348 239.427L49.188 234.38C48.0164 233.209 48.0345 231.388 49.2295 230.193L54.1934 225.229ZM58.4219 239.386C57.2269 240.581 57.2088 242.401 58.3804 243.573L63.4272 248.62C64.5988 249.791 66.4192 249.773 67.6143 248.578L72.5781 243.614C73.7732 242.419 73.7912 240.599 72.6196 239.427L67.5728 234.38C66.4012 233.209 64.5808 233.227 63.3858 234.422L58.4219 239.386Z" fill="white"/>
<rect x="1.5" y="592.5" width="33" height="15" rx="7.5" transform="rotate(-90 1.5 592.5)" stroke="white" stroke-width="3"/>
<path d="M3.104 545.021L3.104 544.229L4.454 544.229L4.454 545.642L3.104 545.642L1.691 544.805L1.691 544.202L3.104 545.021ZM3.104 546.911L3.104 546.119L4.454 546.119L4.454 547.532L3.104 547.532L1.691 546.695L1.691 546.092L3.104 546.911ZM2.834 541.812L2.834 543.972L1.7 543.972L1.7 538.284L2.834 538.284L2.834 540.444L8 540.444L8 541.812L2.834 541.812ZM1.7 537.795L1.7 536.427L4.193 536.427L4.193 533.727L1.7 533.727L1.7 532.359L8 532.359L8 533.727L5.327 533.727L5.327 536.427L8 536.427L8 537.795L1.7 537.795ZM1.7 531.203L1.7 526.442L2.834 526.442L2.834 529.835L4.202 529.835L4.202 527.27L5.318 527.27L5.318 529.835L6.866 529.835L6.866 526.442L8 526.442L8 531.203L1.7 531.203ZM1.7 523.863L1.7 521.622L4.769 520.587C4.997 520.509 5.282 520.455 5.624 520.425C5.96 520.389 6.365 520.368 6.839 520.362L6.839 519.876C6.383 519.87 5.984 519.849 5.642 519.813C5.294 519.777 5.003 519.717 4.769 519.633L1.7 518.58L1.7 516.42L8 516.42L8 517.788L5.498 517.788C4.988 517.788 4.496 517.728 4.022 517.608C3.548 517.482 3.083 517.323 2.627 517.131L2.429 517.635L8 519.543L8 520.758L2.429 522.639L2.627 523.143C3.077 522.951 3.542 522.795 4.022 522.675C4.496 522.555 4.988 522.495 5.498 522.495L8 522.495L8 523.863L1.7 523.863ZM8.144 512.279C8.144 512.969 8.006 513.569 7.73 514.079C7.448 514.589 7.058 514.979 6.56 515.249C6.062 515.513 5.498 515.645 4.868 515.645C4.238 515.645 3.674 515.51 3.176 515.24C2.672 514.964 2.276 514.574 1.988 514.07C1.7 513.56 1.556 512.963 1.556 512.279C1.556 511.595 1.7 511.001 1.988 510.497C2.276 509.987 2.672 509.597 3.176 509.327C3.674 509.051 4.238 508.913 4.868 508.913C5.498 508.913 6.062 509.048 6.56 509.318C7.058 509.582 7.448 509.969 7.73 510.479C8.006 510.989 8.144 511.589 8.144 512.279ZM7.01 512.27C7.01 511.874 6.917 511.532 6.731 511.244C6.545 510.95 6.29 510.728 5.966 510.578C5.642 510.422 5.273 510.344 4.859 510.344C4.439 510.344 4.067 510.422 3.743 510.578C3.413 510.728 3.155 510.95 2.969 511.244C2.783 511.532 2.69 511.874 2.69 512.27C2.69 512.672 2.783 513.02 2.969 513.314C3.155 513.608 3.413 513.833 3.743 513.989C4.067 514.139 4.439 514.214 4.859 514.214C5.273 514.214 5.642 514.139 5.966 513.989C6.29 513.833 6.545 513.608 6.731 513.314C6.917 513.02 7.01 512.672 7.01 512.27ZM8.144 505.763C8.144 506.321 8.057 506.804 7.883 507.212C7.709 507.614 7.478 507.932 7.19 508.166C6.896 508.4 6.566 508.559 6.2 508.643L5.768 507.356C5.99 507.308 6.2 507.221 6.398 507.095C6.59 506.969 6.749 506.795 6.875 506.573C6.995 506.345 7.055 506.075 7.055 505.763C7.055 505.343 6.98 505.034 6.83 504.836C6.68 504.632 6.485 504.53 6.245 504.53C6.041 504.53 5.876 504.611 5.75 504.773C5.618 504.929 5.525 505.19 5.471 505.556L5.363 506.339C5.303 506.759 5.198 507.116 5.048 507.41C4.898 507.704 4.694 507.932 4.436 508.094C4.172 508.25 3.851 508.328 3.473 508.328C3.131 508.328 2.813 508.232 2.519 508.04C2.225 507.848 1.991 507.566 1.817 507.194C1.643 506.816 1.556 506.363 1.556 505.835C1.556 505.325 1.634 504.887 1.79 504.521C1.94 504.155 2.141 503.864 2.393 503.648C2.645 503.426 2.927 503.267 3.239 503.171L3.68 504.431C3.476 504.497 3.296 504.59 3.14 504.71C2.984 504.83 2.864 504.983 2.78 505.169C2.69 505.355 2.645 505.577 2.645 505.835C2.645 506.093 2.681 506.303 2.753 506.465C2.825 506.621 2.921 506.735 3.041 506.807C3.155 506.873 3.281 506.906 3.419 506.906C3.599 506.906 3.749 506.837 3.869 506.699C3.983 506.555 4.058 506.354 4.094 506.096L4.202 505.313C4.298 504.629 4.508 504.092 4.832 503.702C5.156 503.306 5.597 503.108 6.155 503.108C6.527 503.108 6.863 503.204 7.163 503.396C7.463 503.588 7.703 503.882 7.883 504.278C8.057 504.674 8.144 505.169 8.144 505.763ZM2.834 500.993L2.834 503.153L1.7 503.153L1.7 497.465L2.834 497.465L2.834 499.625L8 499.625L8 500.993L2.834 500.993ZM1.7 495.517L1.7 494.149L8 494.149L8 495.517L1.7 495.517ZM1.7 492.994L1.7 490.753L4.769 489.718C4.997 489.64 5.282 489.586 5.624 489.556C5.96 489.52 6.365 489.499 6.839 489.493L6.839 489.007C6.383 489.001 5.984 488.98 5.642 488.944C5.294 488.908 5.003 488.848 4.769 488.764L1.7 487.711L1.7 485.551L8 485.551L8 486.919L5.498 486.919C4.988 486.919 4.496 486.859 4.022 486.739C3.548 486.613 3.083 486.454 2.627 486.262L2.429 486.766L8 488.674L8 489.889L2.429 491.77L2.627 492.274C3.077 492.082 3.542 491.926 4.022 491.806C4.496 491.686 4.988 491.626 5.498 491.626L8 491.626L8 492.994L1.7 492.994ZM1.7 484.398L1.7 481.572C1.7 481.122 1.784 480.726 1.952 480.384C2.114 480.042 2.351 479.775 2.663 479.583C2.969 479.391 3.326 479.295 3.734 479.295C4.148 479.295 4.511 479.391 4.823 479.583C5.129 479.775 5.366 480.042 5.534 480.384C5.702 480.726 5.786 481.119 5.786 481.563L5.786 483.03L8 483.03L8 484.398L1.7 484.398ZM4.652 481.815C4.652 481.599 4.616 481.41 4.544 481.248C4.472 481.08 4.367 480.951 4.229 480.861C4.091 480.765 3.926 480.717 3.734 480.717C3.554 480.717 3.395 480.765 3.257 480.861C3.119 480.951 3.014 481.08 2.942 481.248C2.87 481.41 2.834 481.599 2.834 481.815L2.834 483.03L4.652 483.03L4.652 481.815ZM8.144 475.697C8.144 476.387 8.006 476.987 7.73 477.497C7.448 478.007 7.058 478.397 6.56 478.667C6.062 478.931 5.498 479.063 4.868 479.063C4.238 479.063 3.674 478.928 3.176 478.658C2.672 478.382 2.276 477.992 1.988 477.488C1.7 476.978 1.556 476.381 1.556 475.697C1.556 475.013 1.7 474.419 1.988 473.915C2.276 473.405 2.672 473.015 3.176 472.745C3.674 472.469 4.238 472.331 4.868 472.331C5.498 472.331 6.062 472.466 6.56 472.736C7.058 473 7.448 473.387 7.73 473.897C8.006 474.407 8.144 475.007 8.144 475.697ZM7.01 475.688C7.01 475.292 6.917 474.95 6.731 474.662C6.545 474.368 6.29 474.146 5.966 473.996C5.642 473.84 5.273 473.762 4.859 473.762C4.439 473.762 4.067 473.84 3.743 473.996C3.413 474.146 3.155 474.368 2.969 474.662C2.783 474.95 2.69 475.292 2.69 475.688C2.69 476.09 2.783 476.438 2.969 476.732C3.155 477.026 3.413 477.251 3.743 477.407C4.067 477.557 4.439 477.632 4.859 477.632C5.273 477.632 5.642 477.557 5.966 477.407C6.29 477.251 6.545 477.026 6.731 476.732C6.917 476.438 7.01 476.09 7.01 475.688ZM1.7 471.556L1.7 468.442C1.7 467.998 1.769 467.614 1.907 467.29C2.039 466.966 2.231 466.72 2.483 466.552C2.735 466.378 3.026 466.291 3.356 466.291C3.77 466.291 4.082 466.393 4.292 466.597C4.502 466.795 4.64 467.029 4.706 467.299C4.772 467.569 4.814 467.881 4.832 468.235L5.3 468.235C5.306 467.863 5.342 467.56 5.408 467.326C5.468 467.086 5.585 466.894 5.759 466.75C5.927 466.6 6.17 466.498 6.488 466.444L8 466.183L8 467.641L6.605 467.83C6.359 467.866 6.164 467.929 6.02 468.019C5.876 468.109 5.771 468.238 5.705 468.406C5.639 468.568 5.606 468.781 5.606 469.045L5.606 470.188L8 470.188L8 471.556L1.7 471.556ZM4.499 468.703C4.499 468.403 4.43 468.163 4.292 467.983C4.148 467.803 3.938 467.713 3.662 467.713C3.392 467.713 3.188 467.803 3.05 467.983C2.906 468.163 2.834 468.403 2.834 468.703L2.834 470.188L4.499 470.188L4.499 468.703ZM2.834 464.006L2.834 466.166L1.7 466.166L1.7 460.478L2.834 460.478L2.834 462.638L8 462.638L8 464.006L2.834 464.006ZM1.7 459L1.7 457.227L8 454.842L8 456.354L4.022 457.713C3.83 457.779 3.62 457.824 3.392 457.848C3.158 457.866 2.849 457.878 2.465 457.884L2.465 458.37C2.873 458.376 3.188 458.388 3.41 458.406C3.626 458.424 3.833 458.469 4.031 458.541L8 459.936L8 461.403L1.7 459ZM5.39 459.585L5.39 456.669L6.524 456.282L6.524 459.972L5.39 459.585ZM1.7 454.39L1.7 452.284L6.38 449.485L6.101 449.08C5.831 449.242 5.609 449.362 5.435 449.44C5.261 449.518 5.072 449.575 4.868 449.611C4.658 449.647 4.394 449.665 4.076 449.665L1.7 449.665L1.7 448.297L8 448.297L8 449.944L2.528 453.211L2.789 453.625C3.167 453.421 3.512 453.271 3.824 453.175C4.136 453.073 4.526 453.022 4.994 453.022L8 453.022L8 454.39L1.7 454.39ZM2.834 445.654L2.834 447.814L1.7 447.814L1.69999 442.126L2.834 442.126L2.834 444.286L8 444.286L8 445.654L2.834 445.654ZM2.834 438.982L2.834 441.142L1.69999 441.142L1.69999 435.454L2.834 435.454L2.834 437.614L8 437.614L8 438.982L2.834 438.982ZM1.69999 434.965L1.69999 433.597L4.19299 433.597L4.19299 430.897L1.69999 430.897L1.69999 429.529L7.99999 429.529L7.99999 430.897L5.32699 430.897L5.32699 433.597L7.99999 433.597L8 434.965L1.69999 434.965ZM1.69999 428.373L1.69999 427.005L7.99999 427.005L7.99999 428.373L1.69999 428.373ZM1.69999 425.85L1.69999 423.744L6.37999 420.945L6.10099 420.54C5.83099 420.702 5.60899 420.822 5.43499 420.9C5.26099 420.978 5.07199 421.035 4.86799 421.071C4.65799 421.107 4.39399 421.125 4.07599 421.125L1.69999 421.125L1.69999 419.757L7.99999 419.757L7.99999 421.404L2.52799 424.671L2.78899 425.085C3.16699 424.881 3.51199 424.731 3.82399 424.635C4.13599 424.533 4.52599 424.482 4.99399 424.482L7.99999 424.482L7.99999 425.85L1.69999 425.85ZM8.14399 416.034C8.14399 416.556 8.01499 417.042 7.75699 417.492C7.49899 417.942 7.12399 418.305 6.63199 418.581C6.13999 418.851 5.55499 418.986 4.87699 418.986C4.25899 418.986 3.69799 418.842 3.19399 418.554C2.68399 418.26 2.28499 417.858 1.99699 417.348C1.70299 416.838 1.55599 416.271 1.55599 415.647C1.55599 415.101 1.64299 414.627 1.81699 414.225C1.98499 413.817 2.21599 413.487 2.50999 413.235C2.79799 412.983 3.12199 412.797 3.48199 412.677L3.95899 413.964C3.70699 414.054 3.48799 414.168 3.30199 414.306C3.11599 414.444 2.96899 414.624 2.86099 414.846C2.74699 415.068 2.68999 415.335 2.68999 415.647C2.68999 416.019 2.77699 416.352 2.95099 416.646C3.12499 416.934 3.37699 417.159 3.70699 417.321C4.03699 417.483 4.42699 417.564 4.87699 417.564C5.32099 417.564 5.70499 417.48 6.02899 417.312C6.34699 417.144 6.59299 416.919 6.76699 416.637C6.93499 416.349 7.01899 416.031 7.01899 415.683C7.01899 415.347 6.96499 415.062 6.85699 414.828C6.74299 414.594 6.60199 414.414 6.43399 414.288C6.25999 414.162 6.07999 414.084 5.89399 414.054L5.89399 416.088L4.75999 416.088L4.75999 412.713L7.99999 412.713L7.99999 413.946C7.83199 413.946 7.63099 413.91 7.39699 413.838C7.16299 413.766 6.93499 413.661 6.71299 413.523L6.71299 414.081C7.10299 414.231 7.43899 414.453 7.72099 414.747C8.00299 415.041 8.14399 415.47 8.14399 416.034ZM1.69999 410.046L1.69999 408.678L7.99999 408.678L7.99999 410.046L1.69999 410.046ZM8.14399 405.148C8.14399 405.706 8.05699 406.189 7.88299 406.597C7.70899 406.999 7.47799 407.317 7.18999 407.551C6.89599 407.785 6.56599 407.944 6.19999 408.028L5.76799 406.741C5.98999 406.693 6.19999 406.606 6.39799 406.48C6.58999 406.354 6.74899 406.18 6.87499 405.958C6.99499 405.73 7.05499 405.46 7.05499 405.148C7.05499 404.728 6.97999 404.419 6.82999 404.221C6.67999 404.017 6.48499 403.915 6.24499 403.915C6.04099 403.915 5.87599 403.996 5.74999 404.158C5.61799 404.314 5.52499 404.575 5.47099 404.941L5.36299 405.724C5.30299 406.144 5.19799 406.501 5.04799 406.795C4.89799 407.089 4.69399 407.317 4.43599 407.479C4.17199 407.635 3.85099 407.713 3.47299 407.713C3.13099 407.713 2.81299 407.617 2.51899 407.425C2.22499 407.233 1.99099 406.951 1.81699 406.579C1.64299 406.201 1.55599 405.748 1.55599 405.22C1.55599 404.71 1.63399 404.272 1.78999 403.906C1.93999 403.54 2.14099 403.249 2.39299 403.033C2.64499 402.811 2.92699 402.652 3.23899 402.556L3.67999 403.816C3.47599 403.882 3.29599 403.975 3.13999 404.095C2.98399 404.215 2.86399 404.368 2.77999 404.554C2.68999 404.74 2.64499 404.962 2.64499 405.22C2.64499 405.478 2.68099 405.688 2.75299 405.85C2.82499 406.006 2.92099 406.12 3.04099 406.192C3.15499 406.258 3.28099 406.291 3.41899 406.291C3.59899 406.291 3.74899 406.222 3.86899 406.084C3.98299 405.94 4.05799 405.739 4.09399 405.481L4.20199 404.698C4.29799 404.014 4.50799 403.477 4.83199 403.087C5.15599 402.691 5.59699 402.493 6.15499 402.493C6.52699 402.493 6.86299 402.589 7.16299 402.781C7.46299 402.973 7.70299 403.267 7.88299 403.663C8.05699 404.059 8.14399 404.554 8.14399 405.148ZM2.83399 398.769L2.83399 400.929L1.69999 400.929L1.69999 395.241L2.83399 395.241L2.83399 397.401L7.99999 397.401L7.99999 398.769L2.83399 398.769ZM1.69999 394.752L1.69999 393.384L4.19299 393.384L4.19299 390.684L1.69999 390.684L1.69999 389.316L7.99999 389.316L7.99999 390.684L5.32699 390.684L5.32699 393.384L7.99999 393.384L7.99999 394.752L1.69999 394.752ZM1.69999 386.468L1.69999 384.695L7.99999 382.31L7.99999 383.822L4.02199 385.181C3.82999 385.247 3.61999 385.292 3.39199 385.316C3.15799 385.334 2.84899 385.346 2.46499 385.352L2.46499 385.838C2.87299 385.844 3.18799 385.856 3.40999 385.874C3.62599 385.892 3.83299 385.937 4.03099 386.009L7.99999 387.404L7.99999 388.871L1.69999 386.468ZM5.38999 387.053L5.38999 384.137L6.52399 383.75L6.52399 387.44L5.38999 387.053ZM2.83399 381.067L2.83399 383.227L1.69999 383.227L1.69999 377.539L2.83399 377.539L2.83399 379.699L7.99999 379.699L7.99999 381.067L2.83399 381.067ZM5.43499 374.287L1.69999 376.573L1.69999 374.989L2.92399 374.278C3.25399 374.086 3.54799 373.966 3.80599 373.918C4.05799 373.864 4.39099 373.834 4.80499 373.828L4.80499 373.342C4.40899 373.33 4.08199 373.297 3.82399 373.243C3.55999 373.183 3.25399 373.06 2.90599 372.874L1.69999 372.217L1.69999 370.678L5.43499 372.919L7.99999 372.919L7.99999 374.287L5.43499 374.287ZM8.14399 367.584C8.14399 368.274 8.00599 368.874 7.72999 369.384C7.44799 369.894 7.05799 370.284 6.55999 370.554C6.06199 370.818 5.49799 370.95 4.86799 370.95C4.23799 370.95 3.67399 370.815 3.17599 370.545C2.67199 370.269 2.27599 369.879 1.98799 369.375C1.69999 368.865 1.55599 368.268 1.55599 367.584C1.55599 366.9 1.69999 366.306 1.98799 365.802C2.27599 365.292 2.67199 364.902 3.17599 364.632C3.67399 364.356 4.23799 364.218 4.86799 364.218C5.49799 364.218 6.06199 364.353 6.55999 364.623C7.05799 364.887 7.44799 365.274 7.72999 365.784C8.00599 366.294 8.14399 366.894 8.14399 367.584ZM7.00999 367.575C7.00999 367.179 6.91699 366.837 6.73099 366.549C6.54499 366.255 6.28999 366.033 5.96599 365.883C5.64199 365.727 5.27299 365.649 4.85899 365.649C4.43899 365.649 4.06699 365.727 3.74299 365.883C3.41299 366.033 3.15499 366.255 2.96899 366.549C2.78299 366.837 2.68999 367.179 2.68999 367.575C2.68999 367.977 2.78299 368.325 2.96899 368.619C3.15499 368.913 3.41299 369.138 3.74299 369.294C4.06699 369.444 4.43899 369.519 4.85899 369.519C5.27299 369.519 5.64199 369.444 5.96599 369.294C6.28999 369.138 6.54499 368.913 6.73099 368.619C6.91699 368.325 7.00999 367.977 7.00999 367.575ZM8.14399 360.689C8.14399 361.259 8.03899 361.757 7.82899 362.183C7.61899 362.609 7.31899 362.939 6.92899 363.173C6.53299 363.401 6.07099 363.515 5.54299 363.515L1.69999 363.515L1.69999 362.147L5.32699 362.147C5.86099 362.147 6.26899 362.024 6.55099 361.778C6.83299 361.532 6.97399 361.169 6.97399 360.689C6.97399 360.191 6.82999 359.825 6.54199 359.591C6.25399 359.351 5.84899 359.231 5.32699 359.231L1.69999 359.231L1.69999 357.863L5.54299 357.863C6.08299 357.863 6.54799 357.983 6.93799 358.223C7.32799 358.463 7.62799 358.799 7.83799 359.231C8.04199 359.657 8.14399 360.143 8.14399 360.689ZM1.69999 355.023L1.69999 353.655L6.83899 353.655L6.83899 350.262L7.99999 350.262L7.99999 355.023L1.69999 355.023ZM8.14399 346.989C8.14399 347.679 8.00599 348.279 7.72999 348.789C7.44799 349.299 7.05799 349.689 6.55999 349.959C6.06199 350.223 5.49799 350.355 4.86799 350.355C4.23799 350.355 3.67399 350.22 3.17599 349.95C2.67199 349.674 2.27599 349.284 1.98799 348.78C1.69999 348.27 1.55599 347.673 1.55599 346.989C1.55599 346.305 1.69999 345.711 1.98799 345.207C2.27599 344.697 2.67199 344.307 3.17599 344.037C3.67399 343.761 4.23799 343.623 4.86799 343.623C5.49799 343.623 6.06199 343.758 6.55999 344.028C7.05799 344.292 7.44799 344.679 7.72999 345.189C8.00599 345.699 8.14399 346.299 8.14399 346.989ZM7.00999 346.98C7.00999 346.584 6.91699 346.242 6.73099 345.954C6.54499 345.66 6.28999 345.438 5.96599 345.288C5.64199 345.132 5.27299 345.054 4.85899 345.054C4.43899 345.054 4.06699 345.132 3.74299 345.288C3.41299 345.438 3.15499 345.66 2.96899 345.954C2.78299 346.242 2.68999 346.584 2.68999 346.98C2.68999 347.382 2.78299 347.73 2.96899 348.024C3.15499 348.318 3.41299 348.543 3.74299 348.699C4.06699 348.849 4.43899 348.924 4.85899 348.924C5.27299 348.924 5.64199 348.849 5.96599 348.699C6.28999 348.543 6.54499 348.318 6.73099 348.024C6.91699 347.73 7.00999 347.382 7.00999 346.98ZM1.69999 343.646L1.69999 342.125L5.11099 341.063C5.48899 340.949 5.82199 340.871 6.10999 340.829C6.39199 340.781 6.69499 340.754 7.01899 340.748L7.01899 340.262C6.70099 340.256 6.40099 340.229 6.11899 340.181C5.83099 340.133 5.49499 340.049 5.11099 339.929L1.69999 338.867L1.69999 337.364L7.99999 339.533L7.99999 341.468L1.69999 343.646ZM1.69999 336.855L1.69999 332.094L2.83399 332.094L2.83399 335.487L4.20199 335.487L4.20199 332.922L5.31799 332.922L5.31799 335.487L6.86599 335.487L6.86599 332.094L7.99999 332.094L7.99999 336.855L1.69999 336.855ZM1.69999 330.285L1.69999 328.791L4.19299 328.251C4.61299 328.161 5.00899 328.104 5.38099 328.08C5.74699 328.056 6.19999 328.044 6.73999 328.044L6.73999 327.549C6.31999 327.549 5.96299 327.537 5.66899 327.513C5.36899 327.489 5.05999 327.435 4.74199 327.351L1.69999 326.55L1.69999 324.768L4.74199 323.967C5.05399 323.889 5.35699 323.838 5.65099 323.814C5.93899 323.79 6.30199 323.775 6.73999 323.769L6.73999 323.274C6.19999 323.274 5.74399 323.262 5.37199 323.238C4.99399 323.214 4.60099 323.157 4.19299 323.067L1.69999 322.518L1.69999 321.069L7.99999 322.797L7.99999 324.327L4.83199 325.164C4.44799 325.266 4.11799 325.332 3.84199 325.362C3.56599 325.386 3.23899 325.398 2.86099 325.398L2.86099 325.893C3.23299 325.893 3.55699 325.908 3.83299 325.938C4.10299 325.968 4.43599 326.037 4.83199 326.145L7.99999 327.018L7.99999 328.584L1.69999 330.285ZM1.69999 320.532L1.69999 319.164L4.19299 319.164L4.19299 316.464L1.69999 316.464L1.69999 315.096L7.99999 315.096L7.99999 316.464L5.32699 316.464L5.32699 319.164L7.99999 319.164L7.99999 320.532L1.69999 320.532ZM1.69999 312.248L1.69999 310.475L7.99999 308.09L7.99999 309.602L4.02199 310.961C3.82999 311.027 3.61999 311.072 3.39199 311.096C3.15799 311.114 2.84899 311.126 2.46499 311.132L2.46499 311.618C2.87299 311.624 3.18799 311.636 3.40999 311.654C3.62599 311.672 3.83299 311.717 4.03099 311.789L7.99999 313.184L7.99999 314.651L1.69999 312.248ZM5.38999 312.833L5.38999 309.917L6.52399 309.53L6.52399 313.22L5.38999 312.833ZM2.83399 306.847L2.83399 309.007L1.69999 309.007L1.69999 303.319L2.83399 303.319L2.83399 305.479L7.99999 305.479L7.99999 306.847L2.83399 306.847ZM5.43499 300.067L1.69999 302.353L1.69999 300.769L2.92399 300.058C3.25399 299.866 3.54799 299.746 3.80599 299.698C4.05799 299.644 4.39099 299.614 4.80499 299.608L4.80499 299.122C4.40899 299.11 4.08199 299.077 3.82399 299.023C3.55999 298.963 3.25399 298.84 2.90599 298.654L1.69999 297.997L1.69999 296.458L5.43499 298.699L7.99999 298.699L7.99999 300.067L5.43499 300.067ZM8.14399 293.364C8.14399 294.054 8.00599 294.654 7.72999 295.164C7.44799 295.674 7.05799 296.064 6.55999 296.334C6.06199 296.598 5.49799 296.73 4.86799 296.73C4.23799 296.73 3.67399 296.595 3.17599 296.325C2.67199 296.049 2.27599 295.659 1.98799 295.155C1.69999 294.645 1.55599 294.048 1.55599 293.364C1.55599 292.68 1.69999 292.086 1.98799 291.582C2.27599 291.072 2.67199 290.682 3.17599 290.412C3.67399 290.136 4.23799 289.998 4.86799 289.998C5.49799 289.998 6.06199 290.133 6.55999 290.403C7.05799 290.667 7.44799 291.054 7.72999 291.564C8.00599 292.074 8.14399 292.674 8.14399 293.364ZM7.00999 293.355C7.00999 292.959 6.91699 292.617 6.73099 292.329C6.54499 292.035 6.28999 291.813 5.96599 291.663C5.64199 291.507 5.27299 291.429 4.85899 291.429C4.43899 291.429 4.06699 291.507 3.74299 291.663C3.41299 291.813 3.15499 292.035 2.96899 292.329C2.78299 292.617 2.68999 292.959 2.68999 293.355C2.68999 293.757 2.78299 294.105 2.96899 294.399C3.15499 294.693 3.41299 294.918 3.74299 295.074C4.06699 295.224 4.43899 295.299 4.85899 295.299C5.27299 295.299 5.64199 295.224 5.96599 295.074C6.28999 294.918 6.54499 294.693 6.73099 294.399C6.91699 294.105 7.00999 293.757 7.00999 293.355ZM8.14399 286.469C8.14399 287.039 8.03899 287.537 7.82899 287.963C7.61899 288.389 7.31899 288.719 6.92899 288.953C6.53299 289.181 6.07099 289.295 5.54299 289.295L1.69999 289.295L1.69999 287.927L5.32699 287.927C5.86099 287.927 6.26899 287.804 6.55099 287.558C6.83299 287.312 6.97399 286.949 6.97399 286.469C6.97399 285.971 6.82999 285.605 6.54199 285.371C6.25399 285.131 5.84899 285.011 5.32699 285.011L1.69999 285.011L1.69999 283.643L5.54299 283.643C6.08299 283.643 6.54799 283.763 6.93799 284.003C7.32799 284.243 7.62799 284.579 7.83799 285.011C8.04199 285.437 8.14399 285.923 8.14399 286.469ZM1.69999 279.339L1.69999 277.566L7.99999 275.181L7.99999 276.693L4.02199 278.052C3.82999 278.118 3.61999 278.163 3.39199 278.187C3.15799 278.205 2.84899 278.217 2.46499 278.223L2.46499 278.709C2.87299 278.715 3.18799 278.727 3.40999 278.745C3.62599 278.763 3.83299 278.808 4.03099 278.88L7.99999 280.275L7.99999 281.742L1.69999 279.339ZM5.38999 279.924L5.38999 277.008L6.52399 276.621L6.52399 280.311L5.38999 279.924ZM1.69999 274.729L1.69999 271.615C1.69999 271.171 1.76899 270.787 1.90699 270.463C2.03899 270.139 2.23099 269.893 2.48299 269.725C2.73499 269.551 3.02599 269.464 3.35599 269.464C3.76999 269.464 4.08199 269.566 4.29199 269.77C4.50199 269.968 4.63999 270.202 4.70599 270.472C4.77199 270.742 4.81399 271.054 4.83199 271.408L5.29999 271.408C5.30599 271.036 5.34199 270.733 5.40799 270.499C5.46799 270.259 5.58499 270.067 5.75899 269.923C5.92699 269.773 6.16999 269.671 6.48799 269.617L7.99999 269.356L7.99999 270.814L6.60499 271.003C6.35899 271.039 6.16399 271.102 6.01999 271.192C5.87599 271.282 5.77099 271.411 5.70499 271.579C5.63899 271.741 5.60599 271.954 5.60599 272.218L5.60599 273.361L7.99999 273.361L7.99999 274.729L1.69999 274.729ZM4.49899 271.876C4.49899 271.576 4.42999 271.336 4.29199 271.156C4.14799 270.976 3.93799 270.886 3.66199 270.886C3.39199 270.886 3.18799 270.976 3.04999 271.156C2.90599 271.336 2.83399 271.576 2.83399 271.876L2.83399 273.361L4.49899 273.361L4.49899 271.876ZM1.69999 268.559L1.69999 263.798L2.83399 263.798L2.83399 267.191L4.20199 267.191L4.20199 264.626L5.31799 264.626L5.31799 267.191L6.86599 267.191L6.86599 263.798L7.99999 263.798L7.99999 268.559L1.69999 268.559ZM1.69999 261.219L1.69999 258.843C1.69999 258.237 1.82599 257.682 2.07799 257.178C2.32399 256.668 2.68099 256.263 3.14899 255.963C3.61699 255.663 4.16899 255.513 4.80499 255.513C5.45899 255.513 6.02899 255.663 6.51499 255.963C6.99499 256.263 7.36399 256.668 7.62199 257.178C7.87399 257.682 7.99999 258.237 7.99999 258.843L7.99999 261.219L1.69999 261.219ZM6.86599 258.906C6.86599 258.462 6.79099 258.093 6.64099 257.799C6.48499 257.505 6.25699 257.286 5.95699 257.142C5.65099 256.998 5.27599 256.926 4.83199 256.926C4.42999 256.926 4.07899 256.998 3.77899 257.142C3.47899 257.286 3.24799 257.502 3.08599 257.79C2.91799 258.078 2.83399 258.432 2.83399 258.852L2.83399 259.851L6.86599 259.851L6.86599 258.906ZM8.14399 251.754C8.14399 252.444 8.00599 253.044 7.72999 253.554C7.44799 254.064 7.05799 254.454 6.55999 254.724C6.06199 254.988 5.49799 255.12 4.86799 255.12C4.23799 255.12 3.67399 254.985 3.17599 254.715C2.67199 254.439 2.27599 254.049 1.98799 253.545C1.69999 253.035 1.55599 252.438 1.55599 251.754C1.55599 251.07 1.69999 250.476 1.98799 249.972C2.27599 249.462 2.67199 249.072 3.17599 248.802C3.67399 248.526 4.23799 248.388 4.86799 248.388C5.49799 248.388 6.06199 248.523 6.55999 248.793C7.05799 249.057 7.44799 249.444 7.72999 249.954C8.00599 250.464 8.14399 251.064 8.14399 251.754ZM7.00999 251.745C7.00999 251.349 6.91699 251.007 6.73099 250.719C6.54499 250.425 6.28999 250.203 5.96599 250.053C5.64199 249.897 5.27299 249.819 4.85899 249.819C4.43899 249.819 4.06699 249.897 3.74299 250.053C3.41299 250.203 3.15499 250.425 2.96899 250.719C2.78299 251.007 2.68999 251.349 2.68999 251.745C2.68999 252.147 2.78299 252.495 2.96899 252.789C3.15499 253.083 3.41299 253.308 3.74299 253.464C4.06699 253.614 4.43899 253.689 4.85899 253.689C5.27299 253.689 5.64199 253.614 5.96599 253.464C6.28999 253.308 6.54499 253.083 6.73099 252.789C6.91699 252.495 7.00999 252.147 7.00999 251.745ZM1.69999 247.613L1.69999 246.245L7.99999 246.245L7.99999 247.613L1.69999 247.613ZM1.69999 245.09L1.69999 242.984L6.37999 240.185L6.10099 239.78C5.83099 239.942 5.60899 240.062 5.43499 240.14C5.26099 240.218 5.07199 240.275 4.86799 240.311C4.65799 240.347 4.39399 240.365 4.07599 240.365L1.69999 240.365L1.69999 238.997L7.99999 238.997L7.99999 240.644L2.52799 243.911L2.78899 244.325C3.16699 244.121 3.51199 243.971 3.82399 243.875C4.13599 243.773 4.52599 243.722 4.99399 243.722L7.99999 243.722L7.99999 245.09L1.69999 245.09ZM8.14399 235.274C8.14399 235.796 8.01499 236.282 7.75699 236.732C7.49899 237.182 7.12399 237.545 6.63199 237.821C6.13999 238.091 5.55499 238.226 4.87699 238.226C4.25899 238.226 3.69799 238.082 3.19399 237.794C2.68399 237.5 2.28499 237.098 1.99699 236.588C1.70299 236.078 1.55599 235.511 1.55599 234.887C1.55599 234.341 1.64299 233.867 1.81699 233.465C1.98499 233.057 2.21599 232.727 2.50999 232.475C2.79799 232.223 3.12199 232.037 3.48199 231.917L3.95899 233.204C3.70699 233.294 3.48799 233.408 3.30199 233.546C3.11599 233.684 2.96899 233.864 2.86099 234.086C2.74699 234.308 2.68999 234.575 2.68999 234.887C2.68999 235.259 2.77699 235.592 2.95099 235.886C3.12499 236.174 3.37699 236.399 3.70699 236.561C4.03699 236.723 4.42699 236.804 4.87699 236.804C5.32099 236.804 5.70499 236.72 6.02899 236.552C6.34699 236.384 6.59299 236.159 6.76699 235.877C6.93499 235.589 7.01899 235.271 7.01899 234.923C7.01899 234.587 6.96499 234.302 6.85699 234.068C6.74299 233.834 6.60199 233.654 6.43399 233.528C6.25999 233.402 6.07999 233.324 5.89399 233.294L5.89399 235.328L4.75999 235.328L4.75999 231.953L7.99999 231.953L7.99999 233.186C7.83199 233.186 7.63099 233.15 7.39699 233.078C7.16299 233.006 6.93499 232.901 6.71299 232.763L6.71299 233.321C7.10299 233.471 7.43899 233.693 7.72099 233.987C8.00299 234.281 8.14399 234.71 8.14399 235.274ZM7.99999 230.397L7.99999 231.234L6.57799 231.234L6.57799 229.749L7.99999 229.749L9.48499 230.622L9.48499 231.261L7.99999 230.397ZM1.69999 225.573L1.69999 223.8L7.99999 221.415L7.99999 222.927L4.02199 224.286C3.82999 224.352 3.61999 224.397 3.39199 224.421C3.15799 224.439 2.84899 224.451 2.46499 224.457L2.46499 224.943C2.87299 224.949 3.18799 224.961 3.40999 224.979C3.62599 224.997 3.83299 225.042 4.03099 225.114L7.99999 226.509L7.99999 227.976L1.69999 225.573ZM5.38999 226.158L5.38999 223.242L6.52399 222.855L6.52399 226.545L5.38999 226.158ZM1.69999 220.963L1.69999 218.857L6.37999 216.058L6.10099 215.653C5.83099 215.815 5.60899 215.935 5.43499 216.013C5.26099 216.091 5.07199 216.148 4.86799 216.184C4.65799 216.22 4.39399 216.238 4.07599 216.238L1.69999 216.238L1.69999 214.87L7.99999 214.87L7.99999 216.517L2.52799 219.784L2.78899 220.198C3.16699 219.994 3.51199 219.844 3.82399 219.748C4.13599 219.646 4.52599 219.595 4.99399 219.595L7.99999 219.595L7.99999 220.963L1.69999 220.963ZM1.69998 213.72L1.69998 211.344C1.69998 210.738 1.82598 210.183 2.07798 209.679C2.32398 209.169 2.68098 208.764 3.14898 208.464C3.61698 208.164 4.16898 208.014 4.80498 208.014C5.45899 208.014 6.02899 208.164 6.51499 208.464C6.99499 208.764 7.36399 209.169 7.62199 209.679C7.87399 210.183 7.99999 210.738 7.99999 211.344L7.99999 213.72L1.69998 213.72ZM6.86599 211.407C6.86599 210.963 6.79099 210.594 6.64099 210.3C6.48499 210.006 6.25699 209.787 5.95699 209.643C5.65099 209.499 5.27598 209.427 4.83198 209.427C4.42998 209.427 4.07898 209.499 3.77899 209.643C3.47898 209.787 3.24798 210.003 3.08599 210.291C2.91799 210.579 2.83399 210.933 2.83399 211.353L2.83399 212.352L6.86599 212.352L6.86599 211.407ZM2.83398 204.289L2.83399 206.449L1.69998 206.449L1.69998 200.761L2.83398 200.761L2.83398 202.921L7.99998 202.921L7.99998 204.289L2.83398 204.289ZM1.69998 200.272L1.69998 198.904L4.19298 198.904L4.19298 196.204L1.69998 196.204L1.69998 194.836L7.99998 194.836L7.99998 196.204L5.32698 196.204L5.32698 198.904L7.99998 198.904L7.99998 200.272L1.69998 200.272ZM1.69998 193.68L1.69998 188.919L2.83398 188.919L2.83398 192.312L4.20198 192.312L4.20198 189.747L5.31798 189.747L5.31798 192.312L6.86598 192.312L6.86598 188.919L7.99998 188.919L7.99998 193.68L1.69998 193.68ZM8.14398 183.964C8.14398 184.522 8.05698 185.005 7.88298 185.413C7.70898 185.815 7.47798 186.133 7.18998 186.367C6.89598 186.601 6.56598 186.76 6.19998 186.844L5.76798 185.557C5.98998 185.509 6.19998 185.422 6.39798 185.296C6.58998 185.17 6.74898 184.996 6.87498 184.774C6.99498 184.546 7.05498 184.276 7.05498 183.964C7.05498 183.544 6.97998 183.235 6.82998 183.037C6.67998 182.833 6.48498 182.731 6.24498 182.731C6.04098 182.731 5.87598 182.812 5.74998 182.974C5.61798 183.13 5.52498 183.391 5.47098 183.757L5.36298 184.54C5.30298 184.96 5.19798 185.317 5.04798 185.611C4.89798 185.905 4.69398 186.133 4.43598 186.295C4.17198 186.451 3.85098 186.529 3.47298 186.529C3.13098 186.529 2.81298 186.433 2.51898 186.241C2.22498 186.049 1.99098 185.767 1.81698 185.395C1.64298 185.017 1.55598 184.564 1.55598 184.036C1.55598 183.526 1.63398 183.088 1.78998 182.722C1.93998 182.356 2.14098 182.065 2.39298 181.849C2.64498 181.627 2.92698 181.468 3.23898 181.372L3.67998 182.632C3.47598 182.698 3.29598 182.791 3.13998 182.911C2.98398 183.031 2.86398 183.184 2.77998 183.37C2.68998 183.556 2.64498 183.778 2.64498 184.036C2.64498 184.294 2.68098 184.504 2.75298 184.666C2.82498 184.822 2.92098 184.936 3.04098 185.008C3.15498 185.074 3.28098 185.107 3.41898 185.107C3.59898 185.107 3.74898 185.038 3.86898 184.9C3.98298 184.756 4.05798 184.555 4.09398 184.297L4.20198 183.514C4.29798 182.83 4.50798 182.293 4.83198 181.903C5.15598 181.507 5.59698 181.309 6.15498 181.309C6.52698 181.309 6.86298 181.405 7.16298 181.597C7.46298 181.789 7.70298 182.083 7.88298 182.479C8.05698 182.875 8.14398 183.37 8.14398 183.964ZM1.69998 180.539L1.69998 175.778L2.83398 175.778L2.83398 179.171L4.20198 179.171L4.20198 176.606L5.31798 176.606L5.31798 179.171L6.86598 179.171L6.86598 175.778L7.99998 175.778L7.99998 180.539L1.69998 180.539ZM8.14398 172.254C8.14398 172.902 8.00298 173.472 7.72098 173.964C7.43898 174.456 7.04898 174.837 6.55098 175.107C6.04698 175.377 5.47698 175.512 4.84098 175.512C4.22898 175.512 3.67398 175.374 3.17598 175.098C2.67198 174.822 2.27598 174.435 1.98798 173.937C1.69998 173.439 1.55598 172.872 1.55598 172.236C1.55598 171.744 1.63998 171.3 1.80798 170.904C1.96998 170.502 2.19798 170.169 2.49198 169.905C2.78598 169.635 3.12198 169.443 3.49998 169.329L3.97698 170.562C3.71298 170.658 3.48498 170.781 3.29298 170.931C3.10098 171.081 2.95398 171.267 2.85198 171.489C2.74398 171.705 2.68998 171.96 2.68998 172.254C2.68998 172.632 2.77398 172.959 2.94198 173.235C3.10998 173.505 3.35598 173.715 3.67998 173.865C4.00398 174.009 4.39098 174.081 4.84098 174.081C5.29698 174.081 5.68698 174.009 6.01098 173.865C6.32898 173.721 6.57498 173.514 6.74898 173.244C6.91698 172.968 7.00098 172.638 7.00098 172.254C7.00098 171.822 6.88698 171.462 6.65898 171.174C6.42498 170.886 6.10698 170.67 5.70498 170.526L6.19098 169.32C6.60498 169.476 6.95598 169.689 7.24398 169.959C7.53198 170.223 7.75398 170.547 7.90998 170.931C8.06598 171.315 8.14398 171.756 8.14398 172.254ZM8.14398 165.703C8.14398 166.393 8.00598 166.993 7.72998 167.503C7.44798 168.013 7.05798 168.403 6.55998 168.673C6.06198 168.937 5.49798 169.069 4.86798 169.069C4.23798 169.069 3.67398 168.934 3.17598 168.664C2.67198 168.388 2.27598 167.998 1.98798 167.494C1.69998 166.984 1.55598 166.387 1.55598 165.703C1.55598 165.019 1.69998 164.425 1.98798 163.921C2.27598 163.411 2.67198 163.021 3.17598 162.751C3.67398 162.475 4.23798 162.337 4.86798 162.337C5.49798 162.337 6.06198 162.472 6.55998 162.742C7.05798 163.006 7.44798 163.393 7.72998 163.903C8.00598 164.413 8.14398 165.013 8.14398 165.703ZM7.00998 165.694C7.00998 165.298 6.91698 164.956 6.73098 164.668C6.54498 164.374 6.28998 164.152 5.96598 164.002C5.64198 163.846 5.27298 163.768 4.85898 163.768C4.43898 163.768 4.06698 163.846 3.74298 164.002C3.41298 164.152 3.15498 164.374 2.96898 164.668C2.78298 164.956 2.68998 165.298 2.68998 165.694C2.68998 166.096 2.78298 166.444 2.96898 166.738C3.15498 167.032 3.41298 167.257 3.74298 167.413C4.06698 167.563 4.43898 167.638 4.85898 167.638C5.27298 167.638 5.64198 167.563 5.96598 167.413C6.28998 167.257 6.54498 167.032 6.73098 166.738C6.91698 166.444 7.00998 166.096 7.00998 165.694ZM1.69998 161.562L1.69998 159.456L6.37998 156.657L6.10098 156.252C5.83098 156.414 5.60898 156.534 5.43498 156.612C5.26098 156.69 5.07198 156.747 4.86798 156.783C4.65798 156.819 4.39398 156.837 4.07598 156.837L1.69998 156.837L1.69998 155.469L7.99998 155.469L7.99998 157.116L2.52798 160.383L2.78898 160.797C3.16698 160.593 3.51198 160.443 3.82398 160.347C4.13598 160.245 4.52598 160.194 4.99398 160.194L7.99998 160.194L7.99998 161.562L1.69998 161.562ZM1.69998 154.32L1.69998 151.944C1.69998 151.338 1.82598 150.783 2.07798 150.279C2.32398 149.769 2.68098 149.364 3.14898 149.064C3.61698 148.764 4.16898 148.614 4.80498 148.614C5.45898 148.614 6.02898 148.764 6.51498 149.064C6.99498 149.364 7.36398 149.769 7.62198 150.279C7.87398 150.783 7.99998 151.338 7.99998 151.944L7.99998 154.32L1.69998 154.32ZM6.86598 152.007C6.86598 151.563 6.79098 151.194 6.64098 150.9C6.48498 150.606 6.25698 150.387 5.95698 150.243C5.65098 150.099 5.27598 150.027 4.83198 150.027C4.42998 150.027 4.07898 150.099 3.77898 150.243C3.47898 150.387 3.24798 150.603 3.08598 150.891C2.91798 151.179 2.83398 151.533 2.83398 151.953L2.83398 152.952L6.86598 152.952L6.86598 152.007ZM2.83398 144.889L2.83398 147.049L1.69998 147.049L1.69998 141.361L2.83398 141.361L2.83398 143.521L7.99998 143.521L7.99998 144.889L2.83398 144.889ZM1.69998 140.872L1.69998 139.504L4.19298 139.504L4.19298 136.804L1.69998 136.804L1.69998 135.436L7.99998 135.436L7.99998 136.804L5.32698 136.804L5.32698 139.504L7.99998 139.504L7.99998 140.872L1.69998 140.872ZM1.69998 132.587L1.69998 130.814L7.99998 128.429L7.99998 129.941L4.02198 131.3C3.82998 131.366 3.61998 131.411 3.39198 131.435C3.15798 131.453 2.84898 131.465 2.46498 131.471L2.46498 131.957C2.87298 131.963 3.18798 131.975 3.40998 131.993C3.62598 132.011 3.83298 132.056 4.03098 132.128L7.99998 133.523L7.99998 134.99L1.69998 132.587ZM5.38998 133.172L5.38998 130.256L6.52398 129.869L6.52398 133.559L5.38998 133.172ZM2.83398 127.186L2.83398 129.346L1.69998 129.346L1.69998 123.658L2.83398 123.658L2.83398 125.818L7.99998 125.818L7.99998 127.186L2.83398 127.186ZM5.43498 120.407L1.69998 122.693L1.69998 121.109L2.92398 120.398C3.25398 120.206 3.54798 120.086 3.80598 120.038C4.05798 119.984 4.39098 119.954 4.80498 119.948L4.80498 119.462C4.40898 119.45 4.08198 119.417 3.82398 119.363C3.55998 119.303 3.25398 119.18 2.90598 118.994L1.69998 118.337L1.69998 116.798L5.43498 119.039L7.99998 119.039L7.99998 120.407L5.43498 120.407ZM8.14398 113.703C8.14398 114.393 8.00598 114.993 7.72998 115.503C7.44798 116.013 7.05798 116.403 6.55998 116.673C6.06198 116.937 5.49798 117.069 4.86798 117.069C4.23798 117.069 3.67398 116.934 3.17598 116.664C2.67198 116.388 2.27598 115.998 1.98798 115.494C1.69998 114.984 1.55598 114.387 1.55598 113.703C1.55598 113.019 1.69998 112.425 1.98798 111.921C2.27598 111.411 2.67198 111.021 3.17598 110.751C3.67398 110.475 4.23798 110.337 4.86798 110.337C5.49798 110.337 6.06198 110.472 6.55998 110.742C7.05798 111.006 7.44798 111.393 7.72998 111.903C8.00598 112.413 8.14398 113.013 8.14398 113.703ZM7.00998 113.694C7.00998 113.298 6.91698 112.956 6.73098 112.668C6.54498 112.374 6.28998 112.152 5.96598 112.002C5.64198 111.846 5.27298 111.768 4.85898 111.768C4.43898 111.768 4.06698 111.846 3.74298 112.002C3.41298 112.152 3.15498 112.374 2.96898 112.668C2.78298 112.956 2.68998 113.298 2.68998 113.694C2.68998 114.096 2.78298 114.444 2.96898 114.738C3.15498 115.032 3.41298 115.257 3.74298 115.413C4.06698 115.563 4.43898 115.638 4.85898 115.638C5.27298 115.638 5.64198 115.563 5.96598 115.413C6.28998 115.257 6.54498 115.032 6.73098 114.738C6.91698 114.444 7.00998 114.096 7.00998 113.694ZM8.14398 106.809C8.14398 107.379 8.03898 107.877 7.82898 108.303C7.61898 108.729 7.31898 109.059 6.92898 109.293C6.53298 109.521 6.07098 109.635 5.54298 109.635L1.69998 109.635L1.69998 108.267L5.32698 108.267C5.86098 108.267 6.26898 108.144 6.55098 107.898C6.83298 107.652 6.97398 107.289 6.97398 106.809C6.97398 106.311 6.82998 105.945 6.54198 105.711C6.25398 105.471 5.84898 105.351 5.32698 105.351L1.69998 105.351L1.69998 103.983L5.54298 103.983C6.08298 103.983 6.54798 104.103 6.93798 104.343C7.32798 104.583 7.62798 104.919 7.83798 105.351C8.04198 105.777 8.14398 106.263 8.14398 106.809ZM10.7 545.552L10.7 543.779L17 541.394L17 542.906L13.022 544.265C12.83 544.331 12.62 544.376 12.392 544.4C12.158 544.418 11.849 544.43 11.465 544.436L11.465 544.922C11.873 544.928 12.188 544.94 12.41 544.958C12.626 544.976 12.833 545.021 13.031 545.093L17 546.488L17 547.955L10.7 545.552ZM14.39 546.137L14.39 543.221L15.524 542.834L15.524 546.524L14.39 546.137ZM10.7 540.942L10.7 537.828C10.7 537.384 10.769 537 10.907 536.676C11.039 536.352 11.231 536.106 11.483 535.938C11.735 535.764 12.026 535.677 12.356 535.677C12.77 535.677 13.082 535.779 13.292 535.983C13.502 536.181 13.64 536.415 13.706 536.685C13.772 536.955 13.814 537.267 13.832 537.621L14.3 537.621C14.306 537.249 14.342 536.946 14.408 536.712C14.468 536.472 14.585 536.28 14.759 536.136C14.927 535.986 15.17 535.884 15.488 535.83L17 535.569L17 537.027L15.605 537.216C15.359 537.252 15.164 537.315 15.02 537.405C14.876 537.495 14.771 537.624 14.705 537.792C14.639 537.954 14.606 538.167 14.606 538.431L14.606 539.574L17 539.574L17 540.942L10.7 540.942ZM13.499 538.089C13.499 537.789 13.43 537.549 13.292 537.369C13.148 537.189 12.938 537.099 12.662 537.099C12.392 537.099 12.188 537.189 12.05 537.369C11.906 537.549 11.834 537.789 11.834 538.089L11.834 539.574L13.499 539.574L13.499 538.089ZM10.7 534.772L10.7 530.011L11.834 530.011L11.834 533.404L13.202 533.404L13.202 530.839L14.318 530.839L14.318 533.404L15.866 533.404L15.866 530.011L17 530.011L17 534.772L10.7 534.772ZM10.7 527.432L10.7 525.326L15.38 522.527L15.101 522.122C14.831 522.284 14.609 522.404 14.435 522.482C14.261 522.56 14.072 522.617 13.868 522.653C13.658 522.689 13.394 522.707 13.076 522.707L10.7 522.707L10.7 521.339L17 521.339L17 522.986L11.528 526.253L11.789 526.667C12.167 526.463 12.512 526.313 12.824 526.217C13.136 526.115 13.526 526.064 13.994 526.064L17 526.064L17 527.432L10.7 527.432ZM17.144 517.202C17.144 517.892 17.006 518.492 16.73 519.002C16.448 519.512 16.058 519.902 15.56 520.172C15.062 520.436 14.498 520.568 13.868 520.568C13.238 520.568 12.674 520.433 12.176 520.163C11.672 519.887 11.276 519.497 10.988 518.993C10.7 518.483 10.556 517.886 10.556 517.202C10.556 516.518 10.7 515.924 10.988 515.42C11.276 514.91 11.672 514.52 12.176 514.25C12.674 513.974 13.238 513.836 13.868 513.836C14.498 513.836 15.062 513.971 15.56 514.241C16.058 514.505 16.448 514.892 16.73 515.402C17.006 515.912 17.144 516.512 17.144 517.202ZM16.01 517.193C16.01 516.797 15.917 516.455 15.731 516.167C15.545 515.873 15.29 515.651 14.966 515.501C14.642 515.345 14.273 515.267 13.859 515.267C13.439 515.267 13.067 515.345 12.743 515.501C12.413 515.651 12.155 515.873 11.969 516.167C11.783 516.455 11.69 516.797 11.69 517.193C11.69 517.595 11.783 517.943 11.969 518.237C12.155 518.531 12.413 518.756 12.743 518.912C13.067 519.062 13.439 519.137 13.859 519.137C14.273 519.137 14.642 519.062 14.966 518.912C15.29 518.756 15.545 518.531 15.731 518.237C15.917 517.943 16.01 517.595 16.01 517.193ZM11.834 511.796L11.834 513.956L10.7 513.956L10.7 508.268L11.834 508.268L11.834 510.428L17 510.428L17 511.796L11.834 511.796ZM10.7 504.856L10.7 503.083L17 500.698L17 502.21L13.022 503.569C12.83 503.635 12.62 503.68 12.392 503.704C12.158 503.722 11.849 503.734 11.465 503.74L11.465 504.226C11.873 504.232 12.188 504.244 12.41 504.262C12.626 504.28 12.833 504.325 13.031 504.397L17 505.792L17 507.259L10.7 504.856ZM14.39 505.441L14.39 502.525L15.524 502.138L15.524 505.828L14.39 505.441ZM10.7 500.246L10.7 495.404L11.834 495.404L11.834 498.878L13.472 498.878L13.472 496.097L14.606 496.097L14.606 498.878L17 498.878L17 500.246L10.7 500.246ZM10.7 494.787L10.7 491.673C10.7 491.229 10.769 490.845 10.907 490.521C11.039 490.197 11.231 489.951 11.483 489.783C11.735 489.609 12.026 489.522 12.356 489.522C12.77 489.522 13.082 489.624 13.292 489.828C13.502 490.026 13.64 490.26 13.706 490.53C13.772 490.8 13.814 491.112 13.832 491.466L14.3 491.466C14.306 491.094 14.342 490.791 14.408 490.557C14.468 490.317 14.585 490.125 14.759 489.981C14.927 489.831 15.17 489.729 15.488 489.675L17 489.414L17 490.872L15.605 491.061C15.359 491.097 15.164 491.16 15.02 491.25C14.876 491.34 14.771 491.469 14.705 491.637C14.639 491.799 14.606 492.012 14.606 492.276L14.606 493.419L17 493.419L17 494.787L10.7 494.787ZM13.499 491.934C13.499 491.634 13.43 491.394 13.292 491.214C13.148 491.034 12.938 490.944 12.662 490.944C12.392 490.944 12.188 491.034 12.05 491.214C11.906 491.394 11.834 491.634 11.834 491.934L11.834 493.419L13.499 493.419L13.499 491.934ZM10.7 486.925L10.7 485.152L17 482.767L17 484.279L13.022 485.638C12.83 485.704 12.62 485.749 12.392 485.773C12.158 485.791 11.849 485.803 11.465 485.809L11.465 486.295C11.873 486.301 12.188 486.313 12.41 486.331C12.626 486.349 12.833 486.394 13.031 486.466L17 487.861L17 489.328L10.7 486.925ZM14.39 487.51L14.39 484.594L15.524 484.207L15.524 487.897L14.39 487.51ZM10.7 482.315L10.7 480.947L17 480.947L17 482.315L10.7 482.315ZM10.7 479.792L10.7 477.416C10.7 476.81 10.826 476.255 11.078 475.751C11.324 475.241 11.681 474.836 12.149 474.536C12.617 474.236 13.169 474.086 13.805 474.086C14.459 474.086 15.029 474.236 15.515 474.536C15.995 474.836 16.364 475.241 16.622 475.751C16.874 476.255 17 476.81 17 477.416L17 479.792L10.7 479.792ZM15.866 477.479C15.866 477.035 15.791 476.666 15.641 476.372C15.485 476.078 15.257 475.859 14.957 475.715C14.651 475.571 14.276 475.499 13.832 475.499C13.43 475.499 13.079 475.571 12.779 475.715C12.479 475.859 12.248 476.075 12.086 476.363C11.918 476.651 11.834 477.005 11.834 477.425L11.834 478.424L15.866 478.424L15.866 477.479ZM17.144 468.568C17.144 469.258 17.006 469.858 16.73 470.368C16.448 470.878 16.058 471.268 15.56 471.538C15.062 471.802 14.498 471.934 13.868 471.934C13.238 471.934 12.674 471.799 12.176 471.529C11.672 471.253 11.276 470.863 10.988 470.359C10.7 469.849 10.556 469.252 10.556 468.568C10.556 467.884 10.7 467.29 10.988 466.786C11.276 466.276 11.672 465.886 12.176 465.616C12.674 465.34 13.238 465.202 13.868 465.202C14.498 465.202 15.062 465.337 15.56 465.607C16.058 465.871 16.448 466.258 16.73 466.768C17.006 467.278 17.144 467.878 17.144 468.568ZM16.01 468.559C16.01 468.163 15.917 467.821 15.731 467.533C15.545 467.239 15.29 467.017 14.966 466.867C14.642 466.711 14.273 466.633 13.859 466.633C13.439 466.633 13.067 466.711 12.743 466.867C12.413 467.017 12.155 467.239 11.969 467.533C11.783 467.821 11.69 468.163 11.69 468.559C11.69 468.961 11.783 469.309 11.969 469.603C12.155 469.897 12.413 470.122 12.743 470.278C13.067 470.428 13.439 470.503 13.859 470.503C14.273 470.503 14.642 470.428 14.966 470.278C15.29 470.122 15.545 469.897 15.731 469.603C15.917 469.309 16.01 468.961 16.01 468.559ZM10.7 464.428L10.7 459.586L11.834 459.586L11.834 463.06L13.472 463.06L13.472 460.279L14.606 460.279L14.606 463.06L17 463.06L17 464.428L10.7 464.428ZM10.7 458.227L10.7 456.733L13.193 456.193C13.613 456.103 14.009 456.046 14.381 456.022C14.747 455.998 15.2 455.986 15.74 455.986L15.74 455.491C15.32 455.491 14.963 455.479 14.669 455.455C14.369 455.431 14.06 455.377 13.742 455.293L10.7 454.492L10.7 452.71L13.742 451.909C14.054 451.831 14.357 451.78 14.651 451.756C14.939 451.732 15.302 451.717 15.74 451.711L15.74 451.216C15.2 451.216 14.744 451.204 14.372 451.18C13.994 451.156 13.601 451.099 13.193 451.009L10.7 450.46L10.7 449.011L17 450.739L17 452.269L13.832 453.106C13.448 453.208 13.118 453.274 12.842 453.304C12.566 453.328 12.239 453.34 11.861 453.34L11.861 453.835C12.233 453.835 12.557 453.85 12.833 453.88C13.103 453.91 13.436 453.979 13.832 454.087L17 454.96L17 456.526L10.7 458.227ZM10.7 448.475L10.7 447.107L13.193 447.107L13.193 444.407L10.7 444.407L10.7 443.039L17 443.039L17 444.407L14.327 444.407L14.327 447.107L17 447.107L17 448.475L10.7 448.475ZM10.7 441.882L10.7 437.121L11.834 437.121L11.834 440.514L13.202 440.514L13.202 437.949L14.318 437.949L14.318 440.514L15.866 440.514L15.866 437.121L17 437.121L17 441.882L10.7 441.882ZM10.7 436.301L10.7 433.187C10.7 432.743 10.769 432.359 10.907 432.035C11.039 431.711 11.231 431.465 11.483 431.297C11.735 431.123 12.026 431.036 12.356 431.036C12.77 431.036 13.082 431.138 13.292 431.342C13.502 431.54 13.64 431.774 13.706 432.044C13.772 432.314 13.814 432.626 13.832 432.98L14.3 432.98C14.306 432.608 14.342 432.305 14.408 432.071C14.468 431.831 14.585 431.639 14.759 431.495C14.927 431.345 15.17 431.243 15.488 431.189L17 430.928L17 432.386L15.605 432.575C15.359 432.611 15.164 432.674 15.02 432.764C14.876 432.854 14.771 432.983 14.705 433.151C14.639 433.313 14.606 433.526 14.606 433.79L14.606 434.933L17 434.933L17 436.301L10.7 436.301ZM13.499 433.448C13.499 433.148 13.43 432.908 13.292 432.728C13.148 432.548 12.938 432.458 12.662 432.458C12.392 432.458 12.188 432.548 12.05 432.728C11.906 432.908 11.834 433.148 11.834 433.448L11.834 434.933L13.499 434.933L13.499 433.448ZM10.7 430.131L10.7 425.37L11.834 425.37L11.834 428.763L13.202 428.763L13.202 426.198L14.318 426.198L14.318 428.763L15.866 428.763L15.866 425.37L17 425.37L17 430.131L10.7 430.131ZM14.435 421.488L10.7 423.774L10.7 422.19L11.924 421.479C12.254 421.287 12.548 421.167 12.806 421.119C13.058 421.065 13.391 421.035 13.805 421.029L13.805 420.543C13.409 420.531 13.082 420.498 12.824 420.444C12.56 420.384 12.254 420.261 11.906 420.075L10.7 419.418L10.7 417.879L14.435 420.12L17 420.12L17 421.488L14.435 421.488ZM17.144 414.784C17.144 415.474 17.006 416.074 16.73 416.584C16.448 417.094 16.058 417.484 15.56 417.754C15.062 418.018 14.498 418.15 13.868 418.15C13.238 418.15 12.674 418.015 12.176 417.745C11.672 417.469 11.276 417.079 10.988 416.575C10.7 416.065 10.556 415.468 10.556 414.784C10.556 414.1 10.7 413.506 10.988 413.002C11.276 412.492 11.672 412.102 12.176 411.832C12.674 411.556 13.238 411.418 13.868 411.418C14.498 411.418 15.062 411.553 15.56 411.823C16.058 412.087 16.448 412.474 16.73 412.984C17.006 413.494 17.144 414.094 17.144 414.784ZM16.01 414.775C16.01 414.379 15.917 414.037 15.731 413.749C15.545 413.455 15.29 413.233 14.966 413.083C14.642 412.927 14.273 412.849 13.859 412.849C13.439 412.849 13.067 412.927 12.743 413.083C12.413 413.233 12.155 413.455 11.969 413.749C11.783 414.037 11.69 414.379 11.69 414.775C11.69 415.177 11.783 415.525 11.969 415.819C12.155 416.113 12.413 416.338 12.743 416.494C13.067 416.644 13.439 416.719 13.859 416.719C14.273 416.719 14.642 416.644 14.966 416.494C15.29 416.338 15.545 416.113 15.731 415.819C15.917 415.525 16.01 415.177 16.01 414.775ZM17.144 407.89C17.144 408.46 17.039 408.958 16.829 409.384C16.619 409.81 16.319 410.14 15.929 410.374C15.533 410.602 15.071 410.716 14.543 410.716L10.7 410.716L10.7 409.348L14.327 409.348C14.861 409.348 15.269 409.225 15.551 408.979C15.833 408.733 15.974 408.37 15.974 407.89C15.974 407.392 15.83 407.026 15.542 406.792C15.254 406.552 14.849 406.432 14.327 406.432L10.7 406.432L10.7 405.064L14.543 405.064C15.083 405.064 15.548 405.184 15.938 405.424C16.328 405.664 16.628 406 16.838 406.432C17.042 406.858 17.144 407.344 17.144 407.89ZM10.7 403.982L10.7 400.868C10.7 400.424 10.769 400.04 10.907 399.716C11.039 399.392 11.231 399.146 11.483 398.978C11.735 398.804 12.026 398.717 12.356 398.717C12.77 398.717 13.082 398.819 13.292 399.023C13.502 399.221 13.64 399.455 13.706 399.725C13.772 399.995 13.814 400.307 13.832 400.661L14.3 400.661C14.306 400.289 14.342 399.986 14.408 399.752C14.468 399.512 14.585 399.32 14.759 399.176C14.927 399.026 15.17 398.924 15.488 398.87L17 398.609L17 400.067L15.605 400.256C15.359 400.292 15.164 400.355 15.02 400.445C14.876 400.535 14.771 400.664 14.705 400.832C14.639 400.994 14.606 401.207 14.606 401.471L14.606 402.614L17 402.614L17 403.982L10.7 403.982ZM13.499 401.129C13.499 400.829 13.43 400.589 13.292 400.409C13.148 400.229 12.938 400.139 12.662 400.139C12.392 400.139 12.188 400.229 12.05 400.409C11.906 400.589 11.834 400.829 11.834 401.129L11.834 402.614L13.499 402.614L13.499 401.129ZM10.7 396.053L10.7 393.947L15.38 391.148L15.101 390.743C14.831 390.905 14.609 391.025 14.435 391.103C14.261 391.181 14.072 391.238 13.868 391.274C13.658 391.31 13.394 391.328 13.076 391.328L10.7 391.328L10.7 389.96L17 389.96L17 391.607L11.528 394.874L11.789 395.288C12.167 395.084 12.512 394.934 12.824 394.838C13.136 394.736 13.526 394.685 13.994 394.685L17 394.685L17 396.053L10.7 396.053ZM10.7 388.811L10.7 384.05L11.834 384.05L11.834 387.443L13.202 387.443L13.202 384.878L14.318 384.878L14.318 387.443L15.866 387.443L15.866 384.05L17 384.05L17 388.811L10.7 388.811ZM13.616 381.582L10.7 383.805L10.7 382.05L11.465 381.483C11.723 381.291 11.99 381.165 12.266 381.105C12.542 381.039 12.884 381.006 13.292 381.006L13.292 380.52C13.022 380.514 12.797 380.49 12.617 380.448C12.431 380.4 12.266 380.337 12.122 380.259C11.978 380.181 11.792 380.061 11.564 379.899L10.7 379.296L10.7 377.757L13.643 379.881L17 377.46L17 379.215L15.812 379.998C15.536 380.178 15.269 380.304 15.011 380.376C14.753 380.442 14.447 380.472 14.093 380.466L14.093 380.952C14.435 380.97 14.717 381.027 14.939 381.123C15.161 381.213 15.458 381.39 15.83 381.654L17 382.482L17 384.048L13.616 381.582ZM11.834 375.644L11.834 377.804L10.7 377.804L10.7 372.116L11.834 372.116L11.834 374.276L17 374.276L17 375.644L11.834 375.644ZM10.7 370.168L10.7 368.8L17 368.8L17 370.168L10.7 370.168ZM10.7 367.645L10.7 365.269C10.7 364.663 10.826 364.108 11.078 363.604C11.324 363.094 11.681 362.689 12.149 362.389C12.617 362.089 13.169 361.939 13.805 361.939C14.459 361.939 15.029 362.089 15.515 362.389C15.995 362.689 16.364 363.094 16.622 363.604C16.874 364.108 17 364.663 17 365.269L17 367.645L10.7 367.645ZM15.866 365.332C15.866 364.888 15.791 364.519 15.641 364.225C15.485 363.931 15.257 363.712 14.957 363.568C14.651 363.424 14.276 363.352 13.832 363.352C13.43 363.352 13.079 363.424 12.779 363.568C12.479 363.712 12.248 363.928 12.086 364.216C11.918 364.504 11.834 364.858 11.834 365.278L11.834 366.277L15.866 366.277L15.866 365.332ZM10.7 361.167L10.7 356.406L11.834 356.406L11.834 359.799L13.202 359.799L13.202 357.234L14.318 357.234L14.318 359.799L15.866 359.799L15.866 356.406L17 356.406L17 361.167L10.7 361.167ZM10.7 353.893L10.7 352.12L17 349.735L17 351.247L13.022 352.606C12.83 352.672 12.62 352.717 12.392 352.741C12.158 352.759 11.849 352.771 11.465 352.777L11.465 353.263C11.873 353.269 12.188 353.281 12.41 353.299C12.626 353.317 12.833 353.362 13.031 353.434L17 354.829L17 356.296L10.7 353.893ZM14.39 354.478L14.39 351.562L15.524 351.175L15.524 354.865L14.39 354.478ZM10.7 348.515L10.7 347.021L13.193 346.481C13.613 346.391 14.009 346.334 14.381 346.31C14.747 346.286 15.2 346.274 15.74 346.274L15.74 345.779C15.32 345.779 14.963 345.767 14.669 345.743C14.369 345.719 14.06 345.665 13.742 345.581L10.7 344.78L10.7 342.998L13.742 342.197C14.054 342.119 14.357 342.068 14.651 342.044C14.939 342.02 15.302 342.005 15.74 341.999L15.74 341.504C15.2 341.504 14.744 341.492 14.372 341.468C13.994 341.444 13.601 341.387 13.193 341.297L10.7 340.748L10.7 339.299L17 341.027L17 342.557L13.832 343.394C13.448 343.496 13.118 343.562 12.842 343.592C12.566 343.616 12.239 343.628 11.861 343.628L11.861 344.123C12.233 344.123 12.557 344.138 12.833 344.168C13.103 344.198 13.436 344.267 13.832 344.375L17 345.248L17 346.814L10.7 348.515ZM10.7 338.762L10.7 337.394L17 337.394L17 338.762L10.7 338.762ZM10.7 336.239L10.7 334.871L15.839 334.871L15.839 331.478L17 331.478L17 336.239L10.7 336.239ZM10.7 330.992L10.7 329.624L15.839 329.624L15.839 326.231L17 326.231L17 330.992L10.7 330.992ZM10.7 324.285L10.7 322.917L15.839 322.917L15.839 319.524L17 319.524L17 324.285L10.7 324.285ZM10.7 319.038L10.7 314.277L11.834 314.277L11.834 317.67L13.202 317.67L13.202 315.105L14.318 315.105L14.318 317.67L15.866 317.67L15.866 314.277L17 314.277L17 319.038L10.7 319.038ZM10.7 311.764L10.7 309.991L17 307.606L17 309.118L13.022 310.477C12.83 310.543 12.62 310.588 12.392 310.612C12.158 310.63 11.849 310.642 11.465 310.648L11.465 311.134C11.873 311.14 12.188 311.152 12.41 311.17C12.626 311.188 12.833 311.233 13.031 311.305L17 312.7L17 314.167L10.7 311.764ZM14.39 312.349L14.39 309.433L15.524 309.046L15.524 312.736L14.39 312.349ZM10.7 307.154L10.7 304.778C10.7 304.172 10.826 303.617 11.078 303.113C11.324 302.603 11.681 302.198 12.149 301.898C12.617 301.598 13.169 301.448 13.805 301.448C14.459 301.448 15.029 301.598 15.515 301.898C15.995 302.198 16.364 302.603 16.622 303.113C16.874 303.617 17 304.172 17 304.778L17 307.154L10.7 307.154ZM15.866 304.841C15.866 304.397 15.791 304.028 15.641 303.734C15.485 303.44 15.257 303.221 14.957 303.077C14.651 302.933 14.276 302.861 13.832 302.861C13.43 302.861 13.079 302.933 12.779 303.077C12.479 303.221 12.248 303.437 12.086 303.725C11.918 304.013 11.834 304.367 11.834 304.787L11.834 305.786L15.866 305.786L15.866 304.841ZM15.578 301.156L15.578 299.671L17 299.671L17 301.156L15.578 301.156ZM12.05 299.326L12.05 300.118L10.7 300.118L10.7 298.705L12.05 298.705L13.463 299.542L13.463 300.145L12.05 299.326ZM12.05 297.436L12.05 298.228L10.7 298.228L10.7 296.815L12.05 296.815L13.463 297.652L13.463 298.255L12.05 297.436ZM13.625 294.501L13.625 289.785L14.651 289.785L14.651 294.501L13.625 294.501ZM17.144 284.207C17.144 284.855 17.003 285.425 16.721 285.917C16.439 286.409 16.049 286.79 15.551 287.06C15.047 287.33 14.477 287.465 13.841 287.465C13.229 287.465 12.674 287.327 12.176 287.051C11.672 286.775 11.276 286.388 10.988 285.89C10.7 285.392 10.556 284.825 10.556 284.189C10.556 283.697 10.64 283.253 10.808 282.857C10.97 282.455 11.198 282.122 11.492 281.858C11.786 281.588 12.122 281.396 12.5 281.282L12.977 282.515C12.713 282.611 12.485 282.734 12.293 282.884C12.101 283.034 11.954 283.22 11.852 283.442C11.744 283.658 11.69 283.913 11.69 284.207C11.69 284.585 11.774 284.912 11.942 285.188C12.11 285.458 12.356 285.668 12.68 285.818C13.004 285.962 13.391 286.034 13.841 286.034C14.297 286.034 14.687 285.962 15.011 285.818C15.329 285.674 15.575 285.467 15.749 285.197C15.917 284.921 16.001 284.591 16.001 284.207C16.001 283.775 15.887 283.415 15.659 283.127C15.425 282.839 15.107 282.623 14.705 282.479L15.191 281.273C15.605 281.429 15.956 281.642 16.244 281.912C16.532 282.176 16.754 282.5 16.91 282.884C17.066 283.268 17.144 283.709 17.144 284.207ZM10.7 280.644L10.7 279.276L13.193 279.276L13.193 276.576L10.7 276.576L10.7 275.208L17 275.208L17 276.576L14.327 276.576L14.327 279.276L17 279.276L17 280.644L10.7 280.644ZM10.7 272.36L10.7 270.587L17 268.202L17 269.714L13.022 271.073C12.83 271.139 12.62 271.184 12.392 271.208C12.158 271.226 11.849 271.238 11.465 271.244L11.465 271.73C11.873 271.736 12.188 271.748 12.41 271.766C12.626 271.784 12.833 271.829 13.031 271.901L17 273.296L17 274.763L10.7 272.36ZM14.39 272.945L14.39 270.029L15.524 269.642L15.524 273.332L14.39 272.945ZM10.7 267.75L10.7 264.636C10.7 264.192 10.769 263.808 10.907 263.484C11.039 263.16 11.231 262.914 11.483 262.746C11.735 262.572 12.026 262.485 12.356 262.485C12.77 262.485 13.082 262.587 13.292 262.791C13.502 262.989 13.64 263.223 13.706 263.493C13.772 263.763 13.814 264.075 13.832 264.429L14.3 264.429C14.306 264.057 14.342 263.754 14.408 263.52C14.468 263.28 14.585 263.088 14.759 262.944C14.927 262.794 15.17 262.692 15.488 262.638L17 262.377L17 263.835L15.605 264.024C15.359 264.06 15.164 264.123 15.02 264.213C14.876 264.303 14.771 264.432 14.705 264.6C14.639 264.762 14.606 264.975 14.606 265.239L14.606 266.382L17 266.382L17 267.75L10.7 267.75ZM13.499 264.897C13.499 264.597 13.43 264.357 13.292 264.177C13.148 263.997 12.938 263.907 12.662 263.907C12.392 263.907 12.188 263.997 12.05 264.177C11.906 264.357 11.834 264.597 11.834 264.897L11.834 266.382L13.499 266.382L13.499 264.897ZM10.7 261.579L10.7 260.211L15.839 260.211L15.839 256.818L17 256.818L17 261.579L10.7 261.579ZM10.7 256.332L10.7 251.571L11.834 251.571L11.834 254.964L13.202 254.964L13.202 252.399L14.318 252.399L14.318 254.964L15.866 254.964L15.866 251.571L17 251.571L17 256.332L10.7 256.332ZM17.144 248.375C17.144 248.933 17.057 249.416 16.883 249.824C16.709 250.226 16.478 250.544 16.19 250.778C15.896 251.012 15.566 251.171 15.2 251.255L14.768 249.968C14.99 249.92 15.2 249.833 15.398 249.707C15.59 249.581 15.749 249.407 15.875 249.185C15.995 248.957 16.055 248.687 16.055 248.375C16.055 247.955 15.98 247.646 15.83 247.448C15.68 247.244 15.485 247.142 15.245 247.142C15.041 247.142 14.876 247.223 14.75 247.385C14.618 247.541 14.525 247.802 14.471 248.168L14.363 248.951C14.303 249.371 14.198 249.728 14.048 250.022C13.898 250.316 13.694 250.544 13.436 250.706C13.172 250.862 12.851 250.94 12.473 250.94C12.131 250.94 11.813 250.844 11.519 250.652C11.225 250.46 10.991 250.178 10.817 249.806C10.643 249.428 10.556 248.975 10.556 248.447C10.556 247.937 10.634 247.499 10.79 247.133C10.94 246.767 11.141 246.476 11.393 246.26C11.645 246.038 11.927 245.879 12.239 245.783L12.68 247.043C12.476 247.109 12.296 247.202 12.14 247.322C11.984 247.442 11.864 247.595 11.78 247.781C11.69 247.967 11.645 248.189 11.645 248.447C11.645 248.705 11.681 248.915 11.753 249.077C11.825 249.233 11.921 249.347 12.041 249.419C12.155 249.485 12.281 249.518 12.419 249.518C12.599 249.518 12.749 249.449 12.869 249.311C12.983 249.167 13.058 248.966 13.094 248.708L13.202 247.925C13.298 247.241 13.508 246.704 13.832 246.314C14.156 245.918 14.597 245.72 15.155 245.72C15.527 245.72 15.863 245.816 16.163 246.008C16.463 246.2 16.703 246.494 16.883 246.89C17.057 247.286 17.144 247.781 17.144 248.375ZM10.7 243.191L10.7 238.43L11.834 238.43L11.834 241.823L13.202 241.823L13.202 239.258L14.318 239.258L14.318 241.823L15.866 241.823L15.866 238.43L17 238.43L17 243.191L10.7 243.191ZM10.7 235.918L10.7 234.145L17 231.76L17 233.272L13.022 234.631C12.83 234.697 12.62 234.742 12.392 234.766C12.158 234.784 11.849 234.796 11.465 234.802L11.465 235.288C11.873 235.294 12.188 235.306 12.41 235.324C12.626 235.342 12.833 235.387 13.031 235.459L17 236.854L17 238.321L10.7 235.918ZM14.39 236.503L14.39 233.587L15.524 233.2L15.524 236.89L14.39 236.503ZM10.7 231.308L10.7 229.067L13.769 228.032C13.997 227.954 14.282 227.9 14.624 227.87C14.96 227.834 15.365 227.813 15.839 227.807L15.839 227.321C15.383 227.315 14.984 227.294 14.642 227.258C14.294 227.222 14.003 227.162 13.769 227.078L10.7 226.025L10.7 223.865L17 223.865L17 225.233L14.498 225.233C13.988 225.233 13.496 225.173 13.022 225.053C12.548 224.927 12.083 224.768 11.627 224.576L11.429 225.08L17 226.988L17 228.203L11.429 230.084L11.627 230.588C12.077 230.396 12.542 230.24 13.022 230.12C13.496 230 13.988 229.94 14.498 229.94L17 229.94L17 231.308L10.7 231.308ZM10.7 222.712L10.7 217.951L11.834 217.951L11.834 221.344L13.202 221.344L13.202 218.779L14.318 218.779L14.318 221.344L15.866 221.344L15.866 217.951L17 217.951L17 222.712L10.7 222.712ZM17.144 214.754C17.144 215.312 17.057 215.795 16.883 216.203C16.709 216.605 16.478 216.923 16.19 217.157C15.896 217.391 15.566 217.55 15.2 217.634L14.768 216.347C14.99 216.299 15.2 216.212 15.398 216.086C15.59 215.96 15.749 215.786 15.875 215.564C15.995 215.336 16.055 215.066 16.055 214.754C16.055 214.334 15.98 214.025 15.83 213.827C15.68 213.623 15.485 213.521 15.245 213.521C15.041 213.521 14.876 213.602 14.75 213.764C14.618 213.92 14.525 214.181 14.471 214.547L14.363 215.33C14.303 215.75 14.198 216.107 14.048 216.401C13.898 216.695 13.694 216.923 13.436 217.085C13.172 217.241 12.851 217.319 12.473 217.319C12.131 217.319 11.813 217.223 11.519 217.031C11.225 216.839 10.991 216.557 10.817 216.185C10.643 215.807 10.556 215.354 10.556 214.826C10.556 214.316 10.634 213.878 10.79 213.512C10.94 213.146 11.141 212.855 11.393 212.639C11.645 212.417 11.927 212.258 12.239 212.162L12.68 213.422C12.476 213.488 12.296 213.581 12.14 213.701C11.984 213.821 11.864 213.974 11.78 214.16C11.69 214.346 11.645 214.568 11.645 214.826C11.645 215.084 11.681 215.294 11.753 215.456C11.825 215.612 11.921 215.726 12.041 215.798C12.155 215.864 12.281 215.897 12.419 215.897C12.599 215.897 12.749 215.828 12.869 215.69C12.983 215.546 13.058 215.345 13.094 215.087L13.202 214.304C13.298 213.62 13.508 213.083 13.832 212.693C14.156 212.297 14.597 212.099 15.155 212.099C15.527 212.099 15.863 212.195 16.163 212.387C16.463 212.579 16.703 212.873 16.883 213.269C17.057 213.665 17.144 214.16 17.144 214.754Z" fill="white"/>
</g>
<defs>
<clipPath id="clip0_248_71">
<rect width="85" height="594" fill="white"/>
</clipPath>
</defs>
</svg>
