<svg width="295" height="52" viewBox="0 0 295 52" fill="none" xmlns="http://www.w3.org/2000/svg">
<circle cx="150" cy="41" r="10.5" stroke="white"/>
<path d="M150 30L150 51" stroke="white"/>
<path d="M160 41L139 41" stroke="white"/>
<path d="M271.725 47.6H279.689C280.261 47.6 280.701 47.16 280.701 46.588V44.212C280.701 43.64 281.141 43.2 281.713 43.2H288.665C289.237 43.2 289.677 42.76 289.677 42.188V39.812C289.677 39.24 289.237 38.8 288.665 38.8H281.713C281.141 38.8 280.701 38.36 280.701 37.788V35.412C280.701 34.84 280.261 34.4 279.689 34.4H271.725V30H279.689C280.261 30 280.701 30.44 280.701 31.012V33.388C280.701 33.96 281.141 34.4 281.713 34.4H288.665C289.237 34.4 289.677 34.84 289.677 35.412V37.788C289.677 38.36 290.117 38.8 290.689 38.8H293.153C293.725 38.8 294.165 39.24 294.165 39.812V42.188C294.165 42.76 293.725 43.2 293.153 43.2H290.689C290.117 43.2 289.677 43.64 289.677 44.212V46.588C289.677 47.16 289.237 47.6 288.665 47.6H281.713C281.141 47.6 280.701 48.04 280.701 48.612V50.988C280.701 51.56 280.261 52 279.689 52H271.725V47.6Z" fill="white"/>
<path d="M246.545 47.6H254.509C255.081 47.6 255.521 47.16 255.521 46.588V44.212C255.521 43.64 255.961 43.2 256.533 43.2H263.485C264.057 43.2 264.497 42.76 264.497 42.188V39.812C264.497 39.24 264.057 38.8 263.485 38.8H256.533C255.961 38.8 255.521 38.36 255.521 37.788V35.412C255.521 34.84 255.081 34.4 254.509 34.4H246.545V30H254.509C255.081 30 255.521 30.44 255.521 31.012V33.388C255.521 33.96 255.961 34.4 256.533 34.4H263.485C264.057 34.4 264.497 34.84 264.497 35.412V37.788C264.497 38.36 264.937 38.8 265.509 38.8H267.973C268.545 38.8 268.985 39.24 268.985 39.812V42.188C268.985 42.76 268.545 43.2 267.973 43.2H265.509C264.937 43.2 264.497 43.64 264.497 44.212V46.588C264.497 47.16 264.057 47.6 263.485 47.6H256.533C255.961 47.6 255.521 48.04 255.521 48.612V50.988C255.521 51.56 255.081 52 254.509 52H246.545V47.6Z" fill="white"/>
<path d="M221.363 47.6H229.327C229.899 47.6 230.339 47.16 230.339 46.588V44.212C230.339 43.64 230.779 43.2 231.351 43.2H238.303C238.875 43.2 239.315 42.76 239.315 42.188V39.812C239.315 39.24 238.875 38.8 238.303 38.8H231.351C230.779 38.8 230.339 38.36 230.339 37.788V35.412C230.339 34.84 229.899 34.4 229.327 34.4H221.363V30H229.327C229.899 30 230.339 30.44 230.339 31.012V33.388C230.339 33.96 230.779 34.4 231.351 34.4H238.303C238.875 34.4 239.315 34.84 239.315 35.412V37.788C239.315 38.36 239.755 38.8 240.327 38.8H242.791C243.363 38.8 243.803 39.24 243.803 39.812V42.188C243.803 42.76 243.363 43.2 242.791 43.2H240.327C239.755 43.2 239.315 43.64 239.315 44.212V46.588C239.315 47.16 238.875 47.6 238.303 47.6H231.351C230.779 47.6 230.339 48.04 230.339 48.612V50.988C230.339 51.56 229.899 52 229.327 52H221.363V47.6Z" fill="white"/>
<path d="M196.182 47.6H204.146C204.718 47.6 205.158 47.16 205.158 46.588V44.212C205.158 43.64 205.598 43.2 206.17 43.2H213.122C213.694 43.2 214.134 42.76 214.134 42.188V39.812C214.134 39.24 213.694 38.8 213.122 38.8H206.17C205.598 38.8 205.158 38.36 205.158 37.788V35.412C205.158 34.84 204.718 34.4 204.146 34.4H196.182V30H204.146C204.718 30 205.158 30.44 205.158 31.012V33.388C205.158 33.96 205.598 34.4 206.17 34.4H213.122C213.694 34.4 214.134 34.84 214.134 35.412V37.788C214.134 38.36 214.574 38.8 215.146 38.8H217.61C218.182 38.8 218.622 39.24 218.622 39.812V42.188C218.622 42.76 218.182 43.2 217.61 43.2H215.146C214.574 43.2 214.134 43.64 214.134 44.212V46.588C214.134 47.16 213.694 47.6 213.122 47.6H206.17C205.598 47.6 205.158 48.04 205.158 48.612V50.988C205.158 51.56 204.718 52 204.146 52H196.182V47.6Z" fill="white"/>
<path d="M171 47.6H178.964C179.536 47.6 179.976 47.16 179.976 46.588V44.212C179.976 43.64 180.416 43.2 180.988 43.2H187.94C188.512 43.2 188.952 42.76 188.952 42.188V39.812C188.952 39.24 188.512 38.8 187.94 38.8H180.988C180.416 38.8 179.976 38.36 179.976 37.788V35.412C179.976 34.84 179.536 34.4 178.964 34.4H171V30H178.964C179.536 30 179.976 30.44 179.976 31.012V33.388C179.976 33.96 180.416 34.4 180.988 34.4H187.94C188.512 34.4 188.952 34.84 188.952 35.412V37.788C188.952 38.36 189.392 38.8 189.964 38.8H192.428C193 38.8 193.44 39.24 193.44 39.812V42.188C193.44 42.76 193 43.2 192.428 43.2H189.964C189.392 43.2 188.952 43.64 188.952 44.212V46.588C188.952 47.16 188.512 47.6 187.94 47.6H180.988C180.416 47.6 179.976 48.04 179.976 48.612V50.988C179.976 51.56 179.536 52 178.964 52H171V47.6Z" fill="white"/>
<path d="M77.9704 52C76.5684 52 75.49 50.9216 75.49 49.5196L75.49 43.4804C75.49 42.0784 76.5684 41 77.9704 41L83.7939 41C85.1958 41 86.2743 39.9216 86.2743 38.5196L86.2743 32.4804C86.2743 31.0784 87.3527 30 88.7547 30L94.5782 30C95.9802 30 97.0586 31.0784 97.0586 32.4804L97.0586 38.5196C97.0586 39.9216 95.9802 41 94.5782 41L88.7547 41C87.3527 41 86.2743 42.0784 86.2743 43.4804L86.2743 49.5196C86.2743 50.9216 85.1958 52 83.7939 52L77.9704 52Z" fill="white"/>
<path d="M52.8082 52C51.4063 52 50.3279 50.9216 50.3279 49.5196L50.3279 43.4804C50.3279 42.0784 51.4063 41 52.8082 41L58.6318 41C60.0337 41 61.1122 39.9216 61.1122 38.5196L61.1122 32.4804C61.1122 31.0784 62.1906 30 63.5926 30L69.4161 30C70.8181 30 71.8965 31.0784 71.8965 32.4804L71.8965 38.5196C71.8965 39.9216 70.8181 41 69.4161 41L63.5926 41C62.1906 41 61.1122 42.0784 61.1122 43.4804L61.1122 49.5196C61.1122 50.9216 60.0337 52 58.6318 52L52.8082 52Z" fill="white"/>
<path d="M27.6442 52C26.2422 52 25.1638 50.9216 25.1638 49.5196L25.1638 43.4804C25.1638 42.0784 26.2422 41 27.6442 41L33.4677 41C34.8697 41 35.9481 39.9216 35.9481 38.5196L35.9481 32.4804C35.9481 31.0784 37.0265 30 38.4285 30L44.252 30C45.654 30 46.7324 31.0784 46.7324 32.4804L46.7324 38.5196C46.7324 39.9216 45.654 41 44.252 41L38.4285 41C37.0265 41 35.9481 42.0784 35.9481 43.4804L35.9481 49.5196C35.9481 50.9216 34.8697 52 33.4677 52L27.6442 52Z" fill="white"/>
<path d="M2.48012 52C1.07816 52 -0.000266036 50.9216 -0.000265975 49.5196L-0.000265711 43.4804C-0.000265649 42.0784 1.07816 41 2.48012 41L8.30365 41C9.70561 41 10.784 39.9216 10.784 38.5196L10.784 32.4804C10.784 31.0784 11.8625 30 13.2644 30L19.088 30C20.4899 30 21.5684 31.0784 21.5684 32.4804L21.5684 38.5196C21.5684 39.9216 20.4899 41 19.088 41L13.2644 41C11.8625 41 10.784 42.0784 10.784 43.4804L10.784 49.5196C10.784 50.9216 9.70561 52 8.30365 52L2.48012 52Z" fill="white"/>
<path d="M124.6 31.012C124.6 30.44 125.031 30 125.592 30H128.008C128.569 30 129 30.44 129 31.012V33.388C129 33.96 128.569 34.4 128.008 34.4H125.592C125.031 34.4 124.6 34.84 124.6 35.412V37.788C124.6 38.36 124.169 38.8 123.608 38.8H121.192C120.631 38.8 120.2 39.24 120.2 39.812V42.188C120.2 42.76 120.631 43.2 121.192 43.2H123.608C124.169 43.2 124.6 43.64 124.6 44.212V46.588C124.6 47.16 125.031 47.6 125.592 47.6H128.008C128.569 47.6 129 48.04 129 48.612V50.988C129 51.56 128.569 52 128.008 52H125.592C125.031 52 124.6 51.56 124.6 50.988V48.612C124.6 48.04 124.169 47.6 123.608 47.6H121.192C120.631 47.6 120.2 47.16 120.2 46.588V44.212C120.2 43.64 119.769 43.2 119.208 43.2H116.792C116.231 43.2 115.8 43.64 115.8 44.212V46.588C115.8 47.16 115.369 47.6 114.808 47.6H112.392C111.831 47.6 111.4 48.04 111.4 48.612V50.988C111.4 51.56 110.969 52 110.408 52H107.992C107.431 52 107 51.56 107 50.988V48.612C107 48.04 107.431 47.6 107.992 47.6H110.408C110.969 47.6 111.4 47.16 111.4 46.588V44.212C111.4 43.64 111.831 43.2 112.392 43.2H114.808C115.369 43.2 115.8 42.76 115.8 42.188V39.812C115.8 39.24 115.369 38.8 114.808 38.8H112.392C111.831 38.8 111.4 38.36 111.4 37.788V35.412C111.4 34.84 110.969 34.4 110.408 34.4H107.992C107.431 34.4 107 33.96 107 33.388V31.012C107 30.44 107.431 30 107.992 30H110.408C110.969 30 111.4 30.44 111.4 31.012V33.388C111.4 33.96 111.831 34.4 112.392 34.4H114.808C115.369 34.4 115.8 34.84 115.8 35.412V37.788C115.8 38.36 116.231 38.8 116.792 38.8H119.208C119.769 38.8 120.2 38.36 120.2 37.788V35.412C120.2 34.84 120.631 34.4 121.192 34.4H123.608C124.169 34.4 124.6 33.96 124.6 33.388V31.012Z" fill="white"/>
<path d="M2 0H0V6.54015H2V0Z" fill="white"/>
<path d="M6 0H4V6.54015H6V0Z" fill="white"/>
<path d="M16 0H12V5.83942H16V0Z" fill="white"/>
<path d="M20 0H18V5.83942H20V0Z" fill="white"/>
<path d="M28 0H24V5.83942H28V0Z" fill="white"/>
<path d="M34 0H32V5.83942H34V0Z" fill="white"/>
<path d="M38 0H36V5.83942H38V0Z" fill="white"/>
<path d="M48 0H42V5.83942H48V0Z" fill="white"/>
<path d="M54 0H50V5.83942H54V0Z" fill="white"/>
<path d="M62 0H58V5.83942H62V0Z" fill="white"/>
<path d="M68 0H66V5.83942H68V0Z" fill="white"/>
<path d="M76 0H70V5.83942H76V0Z" fill="white"/>
<path d="M84 0H82V5.83942H84V0Z" fill="white"/>
<path d="M90 0H86V5.83942H90V0Z" fill="white"/>
<path d="M94 0H92V6.54015H94V0Z" fill="white"/>
<path d="M98 0H96V6.54015H98V0Z" fill="white"/>
<path d="M102 0H100V5.83942H102V0Z" fill="white"/>
<path d="M112 0H106V5.83942H112V0Z" fill="white"/>
<path d="M116 0H114V5.83942H116V0Z" fill="white"/>
<path d="M126 0H124V5.83942H126V0Z" fill="white"/>
<path d="M134 0H128V5.83942H134V0Z" fill="white"/>
<path d="M140 0H138V5.83942H140V0Z" fill="white"/>
<path d="M146 0H142V5.83942H146V0Z" fill="white"/>
<path d="M154 0H150V5.83942H154V0Z" fill="white"/>
<path d="M162 0H156V5.83942H162V0Z" fill="white"/>
<path d="M168 0H166V5.83942H168V0Z" fill="white"/>
<path d="M176 0H170V5.83942H176V0Z" fill="white"/>
<path d="M182 0H180V5.83942H182V0Z" fill="white"/>
<path d="M186 0H184V6.54015H186V0Z" fill="white"/>
<path d="M190 0H188V6.54015H190V0Z" fill="white"/>
</svg>
