<svg width="4082" height="462" viewBox="0 0 4082 462" fill="none" xmlns="http://www.w3.org/2000/svg">
<g clip-path="url(#clip0_301_173)">
<path d="M1002.3 122.644C1002.3 104.758 988.586 91.0002 970.757 91.0002L528.014 91.0002L528.014 231.334L970.757 231.334C988.586 231.334 1002.3 245.092 1002.3 262.977L1002.3 340.023C1002.3 357.909 1016.01 371.667 1033.84 371.667L1582.19 371.667C1592.7 371.627 1613.73 365.241 1613.73 340.023L1613.73 262.977C1613.73 245.092 1600.01 231.334 1582.19 231.334L1033.84 231.334C1016.01 231.334 1002.3 217.575 1002.3 199.69L1002.3 122.644Z" fill="#08060F"/>
<path d="M2022.3 340.023C2022.3 357.909 2008.58 371.667 1990.76 371.667L1548.01 371.667L1548.01 231.334L1990.76 231.334C2008.58 231.334 2022.3 217.576 2022.3 199.69L2022.3 122.644C2022.3 104.759 2036.01 91.0005 2053.84 91.0005L2602.18 91.0004C2612.7 91.0407 2633.73 97.4259 2633.73 122.644L2633.73 199.69C2633.73 217.576 2620.01 231.334 2602.18 231.334L2053.84 231.334C2036.01 231.334 2022.3 245.092 2022.3 262.978L2022.3 340.023Z" fill="#08060F"/>
<path d="M13.5496 231.334L871.892 231.334L871.892 91.0003L13.5496 91.0002C3.03536 91.0405 -17.9932 97.4257 -17.9932 122.644L-17.9932 199.69C-17.9932 217.575 -4.27892 231.334 13.5496 231.334Z" fill="#08060F"/>
<path d="M1108.75 300.125C1109.77 300.125 1110.65 300.49 1111.37 301.219C1112.1 301.948 1112.47 302.834 1112.47 303.875C1112.47 305.125 1112.93 306.24 1113.84 307.219C1114.76 308.136 1115.67 309.042 1116.56 309.938C1117.5 310.854 1118.62 311.323 1119.94 311.344C1120.96 311.344 1121.82 311.698 1122.53 312.406C1123.26 313.115 1123.64 314 1123.66 315.063V330H1071.41C1068.66 330 1066.15 329.334 1063.87 328C1061.62 326.646 1059.82 324.844 1058.47 322.594C1057.14 320.323 1056.47 317.813 1056.47 315.063H1063.94C1063.94 317.042 1064.67 318.802 1066.12 320.344C1067.67 321.823 1069.43 322.563 1071.41 322.563L1116.19 322.531C1116.19 317.552 1116.19 315.063 1116.19 315.063C1116.19 313.75 1115.73 312.636 1114.81 311.719C1113.92 310.802 1113.01 309.896 1112.09 309C1111.16 308.084 1110.04 307.615 1108.75 307.594H1071.41C1070.36 307.594 1069.48 307.229 1068.75 306.5C1068.02 305.771 1067.66 304.896 1067.66 303.875C1067.66 302.604 1067.2 301.479 1066.28 300.5C1065.36 299.604 1064.46 298.698 1063.56 297.781C1062.62 296.886 1061.51 296.427 1060.22 296.406C1060.2 296.406 1060.19 296.406 1060.19 296.406C1059.17 296.406 1058.29 296.042 1057.56 295.313C1056.83 294.584 1056.47 293.698 1056.47 292.656V277.719H1108.75C1112.71 277.719 1116.22 279.177 1119.28 282.094C1122.2 285.177 1123.66 288.698 1123.66 292.656H1116.19C1116.19 290.677 1115.46 288.917 1114 287.375C1112.48 285.917 1110.73 285.188 1108.75 285.188H1063.94C1063.94 290.167 1063.94 292.656 1063.94 292.656C1063.94 293.927 1064.4 295.052 1065.31 296.031C1066.23 296.927 1067.14 297.834 1068.03 298.75C1068.97 299.646 1070.09 300.104 1071.41 300.125C1096.3 300.125 1108.75 300.125 1108.75 300.125ZM1195.78 277.719V285.188C1160.95 285.188 1143.53 285.188 1143.53 285.188C1142.22 285.209 1141.1 285.677 1140.16 286.594C1139.26 287.49 1138.36 288.396 1137.44 289.313C1136.54 290.25 1136.09 291.365 1136.06 292.656C1136.06 303.927 1136.06 309.563 1136.06 309.563L1138.41 307.219C1139.33 306.24 1139.78 305.125 1139.78 303.875C1139.78 302.834 1140.15 301.948 1140.88 301.219C1141.61 300.49 1142.49 300.125 1143.53 300.125H1195.78V307.594H1143.53C1142.22 307.615 1141.1 308.084 1140.16 309C1139.26 309.896 1138.36 310.802 1137.44 311.719C1136.52 312.698 1136.06 313.844 1136.06 315.156C1136.13 317.24 1136.87 318.99 1138.28 320.406C1139.72 321.823 1141.47 322.531 1143.53 322.531H1195.78V330H1143.53C1139.58 330 1136.05 328.542 1132.97 325.625C1130.05 322.542 1128.6 319.021 1128.6 315.063V292.656C1128.6 291.636 1128.96 290.761 1129.69 290.031C1130.42 289.302 1131.29 288.938 1132.31 288.938C1133.63 288.917 1134.75 288.448 1135.69 287.531C1136.59 286.636 1137.49 285.729 1138.41 284.813C1139.33 283.834 1139.78 282.719 1139.78 281.469C1139.78 280.427 1140.15 279.542 1140.88 278.813C1141.61 278.084 1142.49 277.719 1143.53 277.719H1195.78ZM1253 330H1215.66C1211.7 330 1208.18 328.542 1205.1 325.625C1202.18 322.542 1200.72 319.021 1200.72 315.063V277.719H1208.19V315.063C1208.19 317.042 1208.92 318.802 1210.38 320.344C1211.84 321.781 1213.6 322.511 1215.66 322.531H1253C1254.3 322.511 1255.41 322.052 1256.35 321.156C1257.27 320.24 1258.17 319.334 1259.07 318.438C1260 317.459 1260.47 316.334 1260.47 315.063C1260.47 314.042 1260.84 313.167 1261.57 312.438C1262.3 311.709 1263.17 311.344 1264.19 311.344C1265.21 311.344 1266.09 311.709 1266.82 312.438C1267.55 313.167 1267.91 314.042 1267.91 315.063C1267.91 316.104 1267.55 316.99 1266.82 317.719C1266.09 318.448 1265.21 318.813 1264.19 318.813C1262.88 318.813 1261.75 319.271 1260.82 320.188C1259.92 321.104 1259.03 322.011 1258.13 322.906C1257.19 323.886 1256.72 325.011 1256.72 326.281C1256.72 327.302 1256.36 328.177 1255.63 328.906C1254.9 329.636 1254.03 330 1253 330ZM1340.04 277.719V285.188C1305.21 285.188 1287.79 285.188 1287.79 285.188C1286.48 285.209 1285.35 285.677 1284.41 286.594C1283.52 287.49 1282.61 288.396 1281.69 289.313C1280.8 290.25 1280.34 291.365 1280.32 292.656C1280.32 303.927 1280.32 309.563 1280.32 309.563L1282.66 307.219C1283.58 306.24 1284.04 305.125 1284.04 303.875C1284.04 302.834 1284.4 301.948 1285.13 301.219C1285.86 300.49 1286.75 300.125 1287.79 300.125H1340.04V307.594H1287.79C1286.48 307.615 1285.35 308.084 1284.41 309C1283.52 309.896 1282.61 310.802 1281.69 311.719C1280.78 312.698 1280.32 313.844 1280.32 315.156C1280.38 317.24 1281.12 318.99 1282.54 320.406C1283.98 321.823 1285.73 322.531 1287.79 322.531H1340.04V330H1287.79C1283.83 330 1280.31 328.542 1277.23 325.625C1274.31 322.542 1272.85 319.021 1272.85 315.063V292.656C1272.85 291.636 1273.22 290.761 1273.94 290.031C1274.67 289.302 1275.55 288.938 1276.57 288.938C1277.88 288.917 1279.01 288.448 1279.94 287.531C1280.84 286.636 1281.75 285.729 1282.66 284.813C1283.58 283.834 1284.04 282.719 1284.04 281.469C1284.04 280.427 1284.4 279.542 1285.13 278.813C1285.86 278.084 1286.75 277.719 1287.79 277.719H1340.04ZM1397.26 277.719C1399.99 277.719 1402.48 278.396 1404.73 279.75C1407 281.084 1408.8 282.886 1410.13 285.156C1411.49 287.406 1412.17 289.906 1412.17 292.656H1404.7C1404.7 290.677 1403.97 288.917 1402.51 287.375C1400.99 285.917 1399.24 285.188 1397.26 285.188H1359.92C1358.6 285.209 1357.48 285.677 1356.54 286.594C1355.65 287.49 1354.74 288.396 1353.82 289.313C1352.91 290.292 1352.45 291.406 1352.45 292.656V315.063C1352.45 317.042 1353.18 318.802 1354.63 320.344C1356.09 321.781 1357.85 322.511 1359.92 322.531C1384.81 322.531 1397.26 322.531 1397.26 322.531C1398.55 322.511 1399.67 322.052 1400.6 321.156C1401.52 320.24 1402.43 319.334 1403.32 318.438C1404.26 317.459 1404.73 316.334 1404.73 315.063C1404.73 314.042 1405.09 313.167 1405.82 312.438C1406.55 311.709 1407.43 311.344 1408.45 311.344C1409.47 311.344 1410.34 311.709 1411.07 312.438C1411.8 313.167 1412.17 314.042 1412.17 315.063C1412.17 316.104 1411.8 316.99 1411.07 317.719C1410.34 318.448 1409.47 318.813 1408.45 318.813C1407.13 318.813 1406.01 319.271 1405.07 320.188C1404.18 321.104 1403.27 322.011 1402.35 322.906C1401.44 323.886 1400.98 325.011 1400.98 326.281C1400.98 327.302 1400.61 328.177 1399.88 328.906C1399.16 329.636 1398.28 330 1397.26 330H1359.92C1357.17 330 1354.66 329.334 1352.38 328C1350.13 326.646 1348.33 324.844 1346.98 322.594C1345.65 320.323 1344.98 317.813 1344.98 315.063V292.656C1344.98 291.636 1345.34 290.761 1346.07 290.031C1346.8 289.302 1347.68 288.938 1348.7 288.938C1350.01 288.917 1351.13 288.448 1352.07 287.531C1352.97 286.636 1353.87 285.729 1354.79 284.813C1355.71 283.834 1356.17 282.719 1356.17 281.469C1356.17 280.427 1356.53 279.542 1357.26 278.813C1357.99 278.084 1358.87 277.719 1359.92 277.719H1397.26ZM1454.54 285.188H1415.23V277.719H1482.42V285.188H1460.04C1458.73 285.209 1457.61 285.677 1456.67 286.594C1455.77 287.49 1454.87 288.396 1453.95 289.313C1453.05 290.25 1452.6 291.365 1452.57 292.656C1452.57 317.552 1452.57 330 1452.57 330H1445.11V292.656C1445.11 291.636 1445.47 290.761 1446.2 290.031C1446.93 289.302 1447.8 288.938 1448.82 288.938C1450.14 288.917 1451.26 288.448 1452.2 287.531L1454.54 285.188ZM1550.8 277.719V285.188C1515.96 285.188 1498.55 285.188 1498.55 285.188C1497.23 285.209 1496.11 285.677 1495.17 286.594C1494.28 287.49 1493.37 288.396 1492.45 289.313C1491.56 290.25 1491.1 291.365 1491.08 292.656C1491.08 303.927 1491.08 309.563 1491.08 309.563L1493.42 307.219C1494.34 306.24 1494.8 305.125 1494.8 303.875C1494.8 302.834 1495.16 301.948 1495.89 301.219C1496.62 300.49 1497.5 300.125 1498.55 300.125H1550.8V307.594H1498.55C1497.23 307.615 1496.11 308.084 1495.17 309C1494.28 309.896 1493.37 310.802 1492.45 311.719C1491.54 312.698 1491.08 313.844 1491.08 315.156C1491.14 317.24 1491.88 318.99 1493.3 320.406C1494.73 321.823 1496.48 322.531 1498.55 322.531H1550.8V330H1498.55C1494.59 330 1491.07 328.542 1487.98 325.625C1485.07 322.542 1483.61 319.021 1483.61 315.063V292.656C1483.61 291.636 1483.97 290.761 1484.7 290.031C1485.43 289.302 1486.31 288.938 1487.33 288.938C1488.64 288.917 1489.76 288.448 1490.7 287.531C1491.6 286.636 1492.5 285.729 1493.42 284.813C1494.34 283.834 1494.8 282.719 1494.8 281.469C1494.8 280.427 1495.16 279.542 1495.89 278.813C1496.62 278.084 1497.5 277.719 1498.55 277.719H1550.8ZM1608.02 330H1555.74V277.719H1608.02C1610.77 277.719 1613.27 278.396 1615.52 279.75C1617.77 281.084 1619.56 282.886 1620.89 285.156C1622.25 287.406 1622.92 289.906 1622.92 292.656V315.063C1622.92 316.104 1622.56 316.99 1621.83 317.719C1621.1 318.448 1620.23 318.813 1619.2 318.813C1617.89 318.813 1616.77 319.271 1615.83 320.188C1614.93 321.104 1614.04 322.011 1613.14 322.906C1612.2 323.886 1611.74 325.011 1611.74 326.281C1611.74 327.302 1611.37 328.177 1610.64 328.906C1609.91 329.636 1609.04 330 1608.02 330ZM1615.45 315.063C1615.45 300.125 1615.45 292.656 1615.45 292.656C1615.45 290.677 1614.73 288.917 1613.27 287.375C1611.75 285.917 1610 285.188 1608.02 285.188H1563.2V322.531H1608.02C1609.31 322.511 1610.42 322.052 1611.36 321.156C1612.28 320.24 1613.18 319.334 1614.08 318.438C1615 317.459 1615.45 316.334 1615.45 315.063ZM1698.93 322.531C1700.22 322.511 1701.33 322.042 1702.27 321.125C1703.19 320.229 1704.1 319.334 1704.99 318.438C1705.91 317.5 1706.38 316.375 1706.4 315.063V277.719H1713.87V315.063C1713.87 317.125 1714.6 318.886 1716.05 320.344C1717.51 321.802 1719.27 322.531 1721.33 322.531H1736.24C1737.55 322.511 1738.68 322.042 1739.62 321.125C1740.51 320.229 1741.42 319.334 1742.33 318.438C1743.25 317.438 1743.71 316.313 1743.71 315.063V277.719H1751.18V315.063C1751.18 316.084 1750.81 316.959 1750.08 317.688C1749.36 318.417 1748.48 318.781 1747.46 318.781C1746.15 318.802 1745.02 319.271 1744.08 320.188C1743.19 321.084 1742.28 321.99 1741.37 322.906C1740.45 323.886 1739.99 325 1739.99 326.25C1739.99 327.292 1739.63 328.177 1738.9 328.906C1738.17 329.636 1737.28 330 1736.24 330H1721.33C1721.33 330 1721.32 330 1721.3 330C1717.97 329.938 1715.04 328.979 1712.52 327.125C1710 325.271 1708.21 322.834 1707.15 319.813C1706.48 320.479 1705.45 321.511 1704.05 322.906C1703.12 323.886 1702.65 325 1702.65 326.25C1702.65 327.292 1702.28 328.177 1701.55 328.906C1700.82 329.636 1699.95 330 1698.93 330H1683.99C1679.89 329.938 1676.37 328.479 1673.43 325.625C1670.51 322.542 1669.05 319.021 1669.05 315.063C1669.05 290.167 1669.05 277.719 1669.05 277.719H1676.52V315.063C1676.52 317.125 1677.25 318.886 1678.71 320.344C1680.17 321.802 1681.93 322.531 1683.99 322.531H1698.93ZM1771.06 277.719H1808.4C1812.36 277.719 1815.87 279.177 1818.93 282.094C1821.85 285.177 1823.31 288.698 1823.31 292.656V315.063C1823.31 316.104 1822.94 316.99 1822.21 317.719C1821.48 318.448 1820.61 318.813 1819.59 318.813C1818.27 318.834 1817.15 319.292 1816.21 320.188C1815.32 321.104 1814.42 322.011 1813.52 322.906C1812.59 323.886 1812.12 325.011 1812.12 326.281C1812.12 327.302 1811.75 328.177 1811.02 328.906C1810.3 329.636 1809.42 330 1808.4 330H1771.06C1767.1 330 1763.58 328.542 1760.49 325.625C1757.58 322.542 1756.12 319.021 1756.12 315.063V292.656C1756.12 291.636 1756.48 290.761 1757.21 290.031C1757.94 289.302 1758.82 288.938 1759.84 288.938C1761.15 288.917 1762.27 288.448 1763.21 287.531C1764.11 286.636 1765.01 285.729 1765.93 284.813C1766.85 283.834 1767.31 282.719 1767.31 281.469C1767.31 280.427 1767.67 279.542 1768.4 278.813C1769.13 278.084 1770.01 277.719 1771.06 277.719ZM1815.84 315.063C1815.84 300.125 1815.84 292.656 1815.84 292.656C1815.84 290.594 1815.11 288.834 1813.65 287.375C1812.21 285.917 1810.46 285.188 1808.4 285.188C1783.5 285.188 1771.06 285.188 1771.06 285.188C1769.74 285.209 1768.62 285.677 1767.68 286.594C1766.79 287.49 1765.88 288.396 1764.96 289.313C1764.07 290.25 1763.61 291.365 1763.59 292.656C1763.59 307.594 1763.59 315.063 1763.59 315.063C1763.59 317.042 1764.32 318.802 1765.77 320.344C1767.25 321.781 1769.01 322.511 1771.06 322.531H1808.4C1809.69 322.511 1810.81 322.052 1811.74 321.156C1812.66 320.24 1813.57 319.334 1814.46 318.438C1815.38 317.459 1815.84 316.334 1815.84 315.063ZM1835.71 322.531V330H1828.25V277.719H1880.5C1884.48 277.719 1888 279.177 1891.06 282.094C1893.98 285.177 1895.43 288.698 1895.43 292.656V300.125C1895.43 301.167 1895.07 302.052 1894.34 302.781C1893.61 303.511 1892.74 303.875 1891.71 303.875C1890.4 303.896 1889.28 304.354 1888.34 305.25C1886.96 306.646 1885.94 307.688 1885.28 308.375C1888.28 309.417 1890.71 311.219 1892.59 313.781C1894.49 316.323 1895.43 319.24 1895.43 322.531V330H1887.96V322.531C1887.96 320.552 1887.24 318.781 1885.78 317.219C1884.26 315.781 1882.51 315.063 1880.53 315.063H1845.4H1843.18C1841.87 315.084 1840.75 315.552 1839.81 316.469C1838.91 317.365 1838.01 318.261 1837.09 319.156C1836.17 320.156 1835.71 321.281 1835.71 322.531ZM1887.96 300.125C1887.96 295.146 1887.96 292.656 1887.96 292.656C1887.96 290.594 1887.24 288.834 1885.78 287.375C1884.32 285.917 1882.57 285.188 1880.53 285.188H1835.71V317.031L1838.06 314.688C1838.98 313.709 1839.43 312.594 1839.43 311.344C1839.43 310.302 1839.8 309.417 1840.53 308.688C1841.26 307.959 1842.14 307.594 1843.18 307.594C1843.18 307.594 1855.64 307.594 1880.56 307.594C1881.81 307.594 1882.91 307.136 1883.87 306.219C1884.79 305.302 1885.69 304.396 1886.59 303.5C1887.51 302.521 1887.96 301.396 1887.96 300.125ZM1919.06 326.281H1907.84V330H1900.37V277.719H1907.84V300.125C1910.4 300.125 1911.69 300.125 1911.69 300.125C1912.98 300.104 1914.09 299.646 1915.03 298.75L1928.94 284.813C1929.87 283.834 1930.34 282.719 1930.34 281.469C1930.34 280.448 1930.7 279.573 1931.4 278.844C1932.11 278.094 1932.97 277.719 1933.97 277.719H1967.56V285.188H1934.06C1932.77 285.209 1931.65 285.677 1930.72 286.594L1916.81 300.5C1915.87 301.479 1915.4 302.604 1915.4 303.875C1915.4 304.896 1915.04 305.771 1914.31 306.5C1913.58 307.229 1912.71 307.594 1911.69 307.594C1909.12 307.594 1907.84 307.594 1907.84 307.594V318.813C1915.3 318.813 1919.03 318.813 1919.03 318.813C1920.34 318.792 1921.47 318.323 1922.4 317.406C1923.3 316.511 1924.21 315.604 1925.12 314.688C1926.04 313.709 1926.5 312.594 1926.5 311.344C1926.5 310.302 1926.85 309.427 1927.56 308.719C1928.29 308.011 1929.19 307.636 1930.25 307.594H1952.62C1956.6 307.594 1960.12 309.052 1963.19 311.969C1966.1 315.052 1967.56 318.573 1967.56 322.531V330H1960.09V322.531C1960.09 320.469 1959.36 318.709 1957.9 317.25C1956.45 315.792 1954.7 315.063 1952.65 315.063H1930.25C1928.94 315.084 1927.81 315.552 1926.87 316.469C1925.98 317.365 1925.07 318.271 1924.15 319.188C1923.24 320.167 1922.78 321.281 1922.78 322.531C1922.78 323.552 1922.43 324.427 1921.72 325.156C1921.01 325.865 1920.12 326.24 1919.06 326.281Z" fill="white"/>
<path d="M-18.7147 340.023C-18.7147 357.909 -32.4288 371.667 -50.2574 371.667L-493 371.667L-493 231.333L-50.2575 231.333C-32.4288 231.333 -18.7147 217.575 -18.7147 199.69L-18.7147 122.644C-18.7147 104.758 -5.00032 91 12.8282 91L561.171 91C571.685 91.0403 592.714 97.4255 592.714 122.644L592.714 199.69C592.714 217.575 579 231.333 561.171 231.333L12.8282 231.333C-5.00031 231.333 -18.7147 245.092 -18.7147 262.977L-18.7147 340.023Z" fill="#08060F"/>
<path d="M88.7614 159.125C89.7822 159.125 90.6572 159.49 91.3864 160.219C92.1155 160.948 92.4801 161.834 92.4801 162.875C92.4801 164.125 92.9384 165.24 93.8551 166.219C94.7718 167.136 95.678 168.042 96.5739 168.938C97.5114 169.854 98.6364 170.323 99.9489 170.344C100.97 170.344 101.834 170.698 102.543 171.406C103.272 172.115 103.647 173 103.668 174.063V189H51.4176C48.6676 189 46.1572 188.334 43.8864 187C41.6364 185.646 39.8343 183.844 38.4801 181.594C37.1468 179.323 36.4801 176.813 36.4801 174.063H43.9489C43.9489 176.042 44.678 177.802 46.1364 179.344C47.678 180.823 49.4384 181.563 51.4176 181.563L96.1989 181.531C96.1989 176.552 96.1989 174.063 96.1989 174.063C96.1989 172.75 95.7405 171.636 94.8239 170.719C93.928 169.802 93.0218 168.896 92.1051 168C91.1676 167.084 90.053 166.615 88.7614 166.594H51.4176C50.3759 166.594 49.4905 166.229 48.7614 165.5C48.0322 164.771 47.6676 163.896 47.6676 162.875C47.6676 161.604 47.2093 160.479 46.2926 159.5C45.3759 158.604 44.4697 157.698 43.5739 156.781C42.6364 155.886 41.5218 155.427 40.2301 155.406C40.2093 155.406 40.1989 155.406 40.1989 155.406C39.178 155.406 38.303 155.042 37.5739 154.313C36.8447 153.584 36.4801 152.698 36.4801 151.656V136.719H88.7614C92.7197 136.719 96.2301 138.177 99.2926 141.094C102.209 144.177 103.668 147.698 103.668 151.656H96.1989C96.1989 149.677 95.4697 147.917 94.0114 146.375C92.4905 144.917 90.7405 144.188 88.7614 144.188H43.9489C43.9489 149.167 43.9489 151.656 43.9489 151.656C43.9489 152.927 44.4072 154.052 45.3239 155.031C46.2405 155.927 47.1468 156.834 48.0426 157.75C48.9801 158.646 50.1051 159.104 51.4176 159.125C76.3134 159.125 88.7614 159.125 88.7614 159.125ZM175.795 136.719V144.188C140.962 144.188 123.545 144.188 123.545 144.188C122.233 144.209 121.108 144.677 120.17 145.594C119.274 146.49 118.368 147.396 117.451 148.313C116.556 149.25 116.097 150.365 116.076 151.656C116.076 162.927 116.076 168.563 116.076 168.563L118.42 166.219C119.337 165.24 119.795 164.125 119.795 162.875C119.795 161.834 120.16 160.948 120.889 160.219C121.618 159.49 122.503 159.125 123.545 159.125H175.795V166.594H123.545C122.233 166.615 121.108 167.084 120.17 168C119.274 168.896 118.368 169.802 117.451 170.719C116.535 171.698 116.076 172.844 116.076 174.156C116.139 176.24 116.878 177.99 118.295 179.406C119.733 180.823 121.483 181.531 123.545 181.531H175.795V189H123.545C119.587 189 116.066 187.542 112.983 184.625C110.066 181.542 108.608 178.021 108.608 174.063V151.656C108.608 150.636 108.972 149.761 109.701 149.031C110.431 148.302 111.306 147.938 112.326 147.938C113.639 147.917 114.764 147.448 115.701 146.531C116.597 145.636 117.503 144.729 118.42 143.813C119.337 142.834 119.795 141.719 119.795 140.469C119.795 139.427 120.16 138.542 120.889 137.813C121.618 137.084 122.503 136.719 123.545 136.719H175.795ZM233.016 189H195.673C191.714 189 188.193 187.542 185.11 184.625C182.193 181.542 180.735 178.021 180.735 174.063V136.719H188.204V174.063C188.204 176.042 188.933 177.802 190.391 179.344C191.85 180.781 193.61 181.511 195.673 181.531H233.016C234.308 181.511 235.423 181.052 236.36 180.156C237.277 179.24 238.183 178.334 239.079 177.438C240.016 176.459 240.485 175.334 240.485 174.063C240.485 173.042 240.85 172.167 241.579 171.438C242.308 170.709 243.183 170.344 244.204 170.344C245.225 170.344 246.1 170.709 246.829 171.438C247.558 172.167 247.923 173.042 247.923 174.063C247.923 175.104 247.558 175.99 246.829 176.719C246.1 177.448 245.225 177.813 244.204 177.813C242.891 177.813 241.766 178.271 240.829 179.188C239.933 180.104 239.037 181.011 238.141 181.906C237.204 182.886 236.735 184.011 236.735 185.281C236.735 186.302 236.371 187.177 235.641 187.906C234.912 188.636 234.037 189 233.016 189ZM320.05 136.719V144.188C285.217 144.188 267.8 144.188 267.8 144.188C266.488 144.209 265.363 144.677 264.425 145.594C263.529 146.49 262.623 147.396 261.706 148.313C260.811 149.25 260.352 150.365 260.331 151.656C260.331 162.927 260.331 168.563 260.331 168.563L262.675 166.219C263.592 165.24 264.05 164.125 264.05 162.875C264.05 161.834 264.415 160.948 265.144 160.219C265.873 159.49 266.758 159.125 267.8 159.125H320.05V166.594H267.8C266.488 166.615 265.363 167.084 264.425 168C263.529 168.896 262.623 169.802 261.706 170.719C260.79 171.698 260.331 172.844 260.331 174.156C260.394 176.24 261.133 177.99 262.55 179.406C263.988 180.823 265.738 181.531 267.8 181.531H320.05V189H267.8C263.842 189 260.321 187.542 257.238 184.625C254.321 181.542 252.863 178.021 252.863 174.063V151.656C252.863 150.636 253.227 149.761 253.956 149.031C254.686 148.302 255.561 147.938 256.581 147.938C257.894 147.917 259.019 147.448 259.956 146.531C260.852 145.636 261.758 144.729 262.675 143.813C263.592 142.834 264.05 141.719 264.05 140.469C264.05 139.427 264.415 138.542 265.144 137.813C265.873 137.084 266.758 136.719 267.8 136.719H320.05ZM377.271 136.719C380.001 136.719 382.49 137.396 384.74 138.75C387.011 140.084 388.813 141.886 390.146 144.156C391.501 146.406 392.178 148.906 392.178 151.656H384.709C384.709 149.677 383.98 147.917 382.521 146.375C381.001 144.917 379.251 144.188 377.271 144.188H339.928C338.615 144.209 337.49 144.677 336.553 145.594C335.657 146.49 334.751 147.396 333.834 148.313C332.917 149.292 332.459 150.406 332.459 151.656V174.063C332.459 176.042 333.188 177.802 334.646 179.344C336.105 180.781 337.865 181.511 339.928 181.531C364.823 181.531 377.271 181.531 377.271 181.531C378.563 181.511 379.678 181.052 380.615 180.156C381.532 179.24 382.438 178.334 383.334 177.438C384.271 176.459 384.74 175.334 384.74 174.063C384.74 173.042 385.105 172.167 385.834 171.438C386.563 170.709 387.438 170.344 388.459 170.344C389.48 170.344 390.355 170.709 391.084 171.438C391.813 172.167 392.178 173.042 392.178 174.063C392.178 175.104 391.813 175.99 391.084 176.719C390.355 177.448 389.48 177.813 388.459 177.813C387.146 177.813 386.021 178.271 385.084 179.188C384.188 180.104 383.282 181.011 382.365 181.906C381.448 182.886 380.99 184.011 380.99 185.281C380.99 186.302 380.626 187.177 379.896 187.906C379.167 188.636 378.292 189 377.271 189H339.928C337.178 189 334.667 188.334 332.396 187C330.146 185.646 328.344 183.844 326.99 181.594C325.657 179.323 324.99 176.813 324.99 174.063V151.656C324.99 150.636 325.355 149.761 326.084 149.031C326.813 148.302 327.688 147.938 328.709 147.938C330.021 147.917 331.146 147.448 332.084 146.531C332.98 145.636 333.886 144.729 334.803 143.813C335.719 142.834 336.178 141.719 336.178 140.469C336.178 139.427 336.542 138.542 337.271 137.813C338.001 137.084 338.886 136.719 339.928 136.719H377.271ZM434.555 144.188H395.243V136.719H462.43V144.188H440.055C438.743 144.209 437.618 144.677 436.68 145.594C435.784 146.49 434.878 147.396 433.961 148.313C433.066 149.25 432.607 150.365 432.586 151.656C432.586 176.552 432.586 189 432.586 189H425.118V151.656C425.118 150.636 425.482 149.761 426.211 149.031C426.941 148.302 427.816 147.938 428.836 147.938C430.149 147.917 431.274 147.448 432.211 146.531L434.555 144.188ZM530.808 136.719V144.188C495.974 144.188 478.558 144.188 478.558 144.188C477.245 144.209 476.12 144.677 475.183 145.594C474.287 146.49 473.381 147.396 472.464 148.313C471.568 149.25 471.11 150.365 471.089 151.656C471.089 162.927 471.089 168.563 471.089 168.563L473.433 166.219C474.349 165.24 474.808 164.125 474.808 162.875C474.808 161.834 475.172 160.948 475.901 160.219C476.631 159.49 477.516 159.125 478.558 159.125H530.808V166.594H478.558C477.245 166.615 476.12 167.084 475.183 168C474.287 168.896 473.381 169.802 472.464 170.719C471.547 171.698 471.089 172.844 471.089 174.156C471.151 176.24 471.891 177.99 473.308 179.406C474.745 180.823 476.495 181.531 478.558 181.531H530.808V189H478.558C474.599 189 471.078 187.542 467.995 184.625C465.078 181.542 463.62 178.021 463.62 174.063V151.656C463.62 150.636 463.985 149.761 464.714 149.031C465.443 148.302 466.318 147.938 467.339 147.938C468.651 147.917 469.776 147.448 470.714 146.531C471.61 145.636 472.516 144.729 473.433 143.813C474.349 142.834 474.808 141.719 474.808 140.469C474.808 139.427 475.172 138.542 475.901 137.813C476.631 137.084 477.516 136.719 478.558 136.719H530.808ZM588.029 189H535.748V136.719H588.029C590.779 136.719 593.279 137.396 595.529 138.75C597.779 140.084 599.57 141.886 600.904 144.156C602.258 146.406 602.935 148.906 602.935 151.656V174.063C602.935 175.104 602.57 175.99 601.841 176.719C601.112 177.448 600.237 177.813 599.216 177.813C597.904 177.813 596.779 178.271 595.841 179.188C594.945 180.104 594.05 181.011 593.154 181.906C592.216 182.886 591.748 184.011 591.748 185.281C591.748 186.302 591.383 187.177 590.654 187.906C589.925 188.636 589.05 189 588.029 189ZM595.466 174.063C595.466 159.125 595.466 151.656 595.466 151.656C595.466 149.677 594.737 147.917 593.279 146.375C591.758 144.917 590.008 144.188 588.029 144.188H543.216V181.531H588.029C589.32 181.511 590.435 181.052 591.373 180.156C592.289 179.24 593.195 178.334 594.091 177.438C595.008 176.459 595.466 175.334 595.466 174.063ZM678.94 181.531C680.232 181.511 681.346 181.042 682.284 180.125C683.201 179.229 684.107 178.334 685.003 177.438C685.919 176.5 686.388 175.375 686.409 174.063V136.719H693.878V174.063C693.878 176.125 694.607 177.886 696.065 179.344C697.523 180.802 699.284 181.531 701.346 181.531H716.253C717.565 181.511 718.69 181.042 719.628 180.125C720.523 179.229 721.43 178.334 722.346 177.438C723.263 176.438 723.721 175.313 723.721 174.063V136.719H731.19V174.063C731.19 175.084 730.826 175.959 730.096 176.688C729.367 177.417 728.492 177.781 727.471 177.781C726.159 177.802 725.034 178.271 724.096 179.188C723.201 180.084 722.294 180.99 721.378 181.906C720.461 182.886 720.003 184 720.003 185.25C720.003 186.292 719.638 187.177 718.909 187.906C718.18 188.636 717.294 189 716.253 189H701.346C701.346 189 701.336 189 701.315 189C697.982 188.938 695.055 187.979 692.534 186.125C690.013 184.271 688.221 181.834 687.159 178.813C686.492 179.479 685.461 180.511 684.065 181.906C683.128 182.886 682.659 184 682.659 185.25C682.659 186.292 682.294 187.177 681.565 187.906C680.836 188.636 679.961 189 678.94 189H664.003C659.898 188.938 656.378 187.479 653.44 184.625C650.523 181.542 649.065 178.021 649.065 174.063C649.065 149.167 649.065 136.719 649.065 136.719H656.534V174.063C656.534 176.125 657.263 177.886 658.721 179.344C660.18 180.802 661.94 181.531 664.003 181.531H678.94ZM751.068 136.719H788.411C792.37 136.719 795.88 138.177 798.943 141.094C801.859 144.177 803.318 147.698 803.318 151.656V174.063C803.318 175.104 802.953 175.99 802.224 176.719C801.495 177.448 800.62 177.813 799.599 177.813C798.286 177.834 797.161 178.292 796.224 179.188C795.328 180.104 794.432 181.011 793.536 181.906C792.599 182.886 792.13 184.011 792.13 185.281C792.13 186.302 791.766 187.177 791.036 187.906C790.307 188.636 789.432 189 788.411 189H751.068C747.109 189 743.588 187.542 740.505 184.625C737.588 181.542 736.13 178.021 736.13 174.063V151.656C736.13 150.636 736.495 149.761 737.224 149.031C737.953 148.302 738.828 147.938 739.849 147.938C741.161 147.917 742.286 147.448 743.224 146.531C744.12 145.636 745.026 144.729 745.943 143.813C746.859 142.834 747.318 141.719 747.318 140.469C747.318 139.427 747.682 138.542 748.411 137.813C749.141 137.084 750.026 136.719 751.068 136.719ZM795.849 174.063C795.849 159.125 795.849 151.656 795.849 151.656C795.849 149.594 795.12 147.834 793.661 146.375C792.224 144.917 790.474 144.188 788.411 144.188C763.516 144.188 751.068 144.188 751.068 144.188C749.755 144.209 748.63 144.677 747.693 145.594C746.797 146.49 745.891 147.396 744.974 148.313C744.078 149.25 743.62 150.365 743.599 151.656C743.599 166.594 743.599 174.063 743.599 174.063C743.599 176.042 744.328 177.802 745.786 179.344C747.266 180.781 749.026 181.511 751.068 181.531H788.411C789.703 181.511 790.818 181.052 791.755 180.156C792.672 179.24 793.578 178.334 794.474 177.438C795.391 176.459 795.849 175.334 795.849 174.063ZM815.726 181.531V189H808.258V136.719H860.508C864.487 136.719 868.008 138.177 871.07 141.094C873.987 144.177 875.445 147.698 875.445 151.656V159.125C875.445 160.167 875.081 161.052 874.351 161.781C873.622 162.511 872.747 162.875 871.726 162.875C870.414 162.896 869.289 163.354 868.351 164.25C866.976 165.646 865.956 166.688 865.289 167.375C868.289 168.417 870.726 170.219 872.601 172.781C874.497 175.323 875.445 178.24 875.445 181.531V189H867.976V181.531C867.976 179.552 867.247 177.781 865.789 176.219C864.268 174.781 862.518 174.063 860.539 174.063H825.414H823.195C821.883 174.084 820.758 174.552 819.82 175.469C818.924 176.365 818.018 177.261 817.101 178.156C816.185 179.156 815.726 180.281 815.726 181.531ZM867.976 159.125C867.976 154.146 867.976 151.656 867.976 151.656C867.976 149.594 867.247 147.834 865.789 146.375C864.331 144.917 862.581 144.188 860.539 144.188H815.726V176.031L818.07 173.688C818.987 172.709 819.445 171.594 819.445 170.344C819.445 169.302 819.81 168.417 820.539 167.688C821.268 166.959 822.153 166.594 823.195 166.594C823.195 166.594 835.653 166.594 860.57 166.594C861.82 166.594 862.924 166.136 863.883 165.219C864.799 164.302 865.706 163.396 866.601 162.5C867.518 161.521 867.976 160.396 867.976 159.125ZM899.073 185.281H887.854V189H880.385V136.719H887.854V159.125C890.416 159.125 891.698 159.125 891.698 159.125C892.989 159.104 894.104 158.646 895.041 157.75L908.948 143.813C909.885 142.834 910.354 141.719 910.354 140.469C910.354 139.448 910.708 138.573 911.416 137.844C912.125 137.094 912.979 136.719 913.979 136.719H947.573V144.188H914.073C912.781 144.209 911.666 144.677 910.729 145.594L896.823 159.5C895.885 160.479 895.416 161.604 895.416 162.875C895.416 163.896 895.052 164.771 894.323 165.5C893.593 166.229 892.718 166.594 891.698 166.594C889.135 166.594 887.854 166.594 887.854 166.594V177.813C895.312 177.813 899.041 177.813 899.041 177.813C900.354 177.792 901.479 177.323 902.416 176.406C903.312 175.511 904.218 174.604 905.135 173.688C906.052 172.709 906.51 171.594 906.51 170.344C906.51 169.302 906.864 168.427 907.573 167.719C908.302 167.011 909.198 166.636 910.26 166.594H932.635C936.614 166.594 940.135 168.052 943.198 170.969C946.114 174.052 947.573 177.573 947.573 181.531V189H940.104V181.531C940.104 179.469 939.375 177.709 937.916 176.25C936.458 174.792 934.708 174.063 932.666 174.063H910.26C908.948 174.084 907.823 174.552 906.885 175.469C905.989 176.365 905.083 177.271 904.166 178.188C903.25 179.167 902.791 180.281 902.791 181.531C902.791 182.552 902.437 183.427 901.729 184.156C901.021 184.865 900.135 185.24 899.073 185.281Z" fill="white"/>
</g>
<g clip-path="url(#clip1_301_173)">
<path d="M3043.3 122.644C3043.3 104.758 3029.59 91.0002 3011.76 91.0002L2569.01 91.0002L2569.01 231.334L3011.76 231.334C3029.59 231.334 3043.3 245.092 3043.3 262.977L3043.3 340.023C3043.3 357.909 3057.01 371.667 3074.84 371.667L3623.19 371.667C3633.7 371.627 3654.73 365.241 3654.73 340.023L3654.73 262.977C3654.73 245.092 3641.01 231.334 3623.19 231.334L3074.84 231.334C3057.01 231.334 3043.3 217.575 3043.3 199.69L3043.3 122.644Z" fill="#08060F"/>
<path d="M4063.3 340.023C4063.3 357.909 4049.58 371.667 4031.76 371.667L3589.01 371.667L3589.01 231.334L4031.76 231.334C4049.58 231.334 4063.3 217.576 4063.3 199.69L4063.3 122.644C4063.3 104.759 4077.01 91.0005 4094.84 91.0005L4643.18 91.0004C4653.7 91.0407 4674.73 97.4259 4674.73 122.644L4674.73 199.69C4674.73 217.576 4661.01 231.334 4643.18 231.334L4094.84 231.334C4077.01 231.334 4063.3 245.092 4063.3 262.978L4063.3 340.023Z" fill="#08060F"/>
<path d="M2054.55 231.334L2912.89 231.334L2912.89 91.0003L2054.55 91.0002C2044.04 91.0405 2023.01 97.4257 2023.01 122.644L2023.01 199.69C2023.01 217.575 2036.72 231.334 2054.55 231.334Z" fill="#08060F"/>
<path d="M3149.75 300.125C3150.77 300.125 3151.65 300.49 3152.37 301.219C3153.1 301.948 3153.47 302.834 3153.47 303.875C3153.47 305.125 3153.93 306.24 3154.84 307.219C3155.76 308.136 3156.67 309.042 3157.56 309.938C3158.5 310.854 3159.62 311.323 3160.94 311.344C3161.96 311.344 3162.82 311.698 3163.53 312.406C3164.26 313.115 3164.64 314 3164.66 315.063V330H3112.41C3109.66 330 3107.15 329.334 3104.87 328C3102.62 326.646 3100.82 324.844 3099.47 322.594C3098.14 320.323 3097.47 317.813 3097.47 315.063H3104.94C3104.94 317.042 3105.67 318.802 3107.12 320.344C3108.67 321.823 3110.43 322.563 3112.41 322.563L3157.19 322.531C3157.19 317.552 3157.19 315.063 3157.19 315.063C3157.19 313.75 3156.73 312.636 3155.81 311.719C3154.92 310.802 3154.01 309.896 3153.09 309C3152.16 308.084 3151.04 307.615 3149.75 307.594H3112.41C3111.36 307.594 3110.48 307.229 3109.75 306.5C3109.02 305.771 3108.66 304.896 3108.66 303.875C3108.66 302.604 3108.2 301.479 3107.28 300.5C3106.36 299.604 3105.46 298.698 3104.56 297.781C3103.62 296.886 3102.51 296.427 3101.22 296.406C3101.2 296.406 3101.19 296.406 3101.19 296.406C3100.17 296.406 3099.29 296.042 3098.56 295.313C3097.83 294.584 3097.47 293.698 3097.47 292.656V277.719H3149.75C3153.71 277.719 3157.22 279.177 3160.28 282.094C3163.2 285.177 3164.66 288.698 3164.66 292.656H3157.19C3157.19 290.677 3156.46 288.917 3155 287.375C3153.48 285.917 3151.73 285.188 3149.75 285.188H3104.94C3104.94 290.167 3104.94 292.656 3104.94 292.656C3104.94 293.927 3105.4 295.052 3106.31 296.031C3107.23 296.927 3108.14 297.834 3109.03 298.75C3109.97 299.646 3111.09 300.104 3112.41 300.125C3137.3 300.125 3149.75 300.125 3149.75 300.125ZM3236.78 277.719V285.188C3201.95 285.188 3184.53 285.188 3184.53 285.188C3183.22 285.209 3182.1 285.677 3181.16 286.594C3180.26 287.49 3179.36 288.396 3178.44 289.313C3177.54 290.25 3177.09 291.365 3177.06 292.656C3177.06 303.927 3177.06 309.563 3177.06 309.563L3179.41 307.219C3180.33 306.24 3180.78 305.125 3180.78 303.875C3180.78 302.834 3181.15 301.948 3181.88 301.219C3182.61 300.49 3183.49 300.125 3184.53 300.125H3236.78V307.594H3184.53C3183.22 307.615 3182.1 308.084 3181.16 309C3180.26 309.896 3179.36 310.802 3178.44 311.719C3177.52 312.698 3177.06 313.844 3177.06 315.156C3177.13 317.24 3177.87 318.99 3179.28 320.406C3180.72 321.823 3182.47 322.531 3184.53 322.531H3236.78V330H3184.53C3180.58 330 3177.05 328.542 3173.97 325.625C3171.05 322.542 3169.6 319.021 3169.6 315.063V292.656C3169.6 291.636 3169.96 290.761 3170.69 290.031C3171.42 289.302 3172.29 288.938 3173.31 288.938C3174.63 288.917 3175.75 288.448 3176.69 287.531C3177.59 286.636 3178.49 285.729 3179.41 284.813C3180.33 283.834 3180.78 282.719 3180.78 281.469C3180.78 280.427 3181.15 279.542 3181.88 278.813C3182.61 278.084 3183.49 277.719 3184.53 277.719H3236.78ZM3294 330H3256.66C3252.7 330 3249.18 328.542 3246.1 325.625C3243.18 322.542 3241.72 319.021 3241.72 315.063V277.719H3249.19V315.063C3249.19 317.042 3249.92 318.802 3251.38 320.344C3252.84 321.781 3254.6 322.511 3256.66 322.531H3294C3295.3 322.511 3296.41 322.052 3297.35 321.156C3298.27 320.24 3299.17 319.334 3300.07 318.438C3301 317.459 3301.47 316.334 3301.47 315.063C3301.47 314.042 3301.84 313.167 3302.57 312.438C3303.3 311.709 3304.17 311.344 3305.19 311.344C3306.21 311.344 3307.09 311.709 3307.82 312.438C3308.55 313.167 3308.91 314.042 3308.91 315.063C3308.91 316.104 3308.55 316.99 3307.82 317.719C3307.09 318.448 3306.21 318.813 3305.19 318.813C3303.88 318.813 3302.75 319.271 3301.82 320.188C3300.92 321.104 3300.03 322.011 3299.13 322.906C3298.19 323.886 3297.72 325.011 3297.72 326.281C3297.72 327.302 3297.36 328.177 3296.63 328.906C3295.9 329.636 3295.03 330 3294 330ZM3381.04 277.719V285.188C3346.21 285.188 3328.79 285.188 3328.79 285.188C3327.48 285.209 3326.35 285.677 3325.41 286.594C3324.52 287.49 3323.61 288.396 3322.69 289.313C3321.8 290.25 3321.34 291.365 3321.32 292.656C3321.32 303.927 3321.32 309.563 3321.32 309.563L3323.66 307.219C3324.58 306.24 3325.04 305.125 3325.04 303.875C3325.04 302.834 3325.4 301.948 3326.13 301.219C3326.86 300.49 3327.75 300.125 3328.79 300.125H3381.04V307.594H3328.79C3327.48 307.615 3326.35 308.084 3325.41 309C3324.52 309.896 3323.61 310.802 3322.69 311.719C3321.78 312.698 3321.32 313.844 3321.32 315.156C3321.38 317.24 3322.12 318.99 3323.54 320.406C3324.98 321.823 3326.73 322.531 3328.79 322.531H3381.04V330H3328.79C3324.83 330 3321.31 328.542 3318.23 325.625C3315.31 322.542 3313.85 319.021 3313.85 315.063V292.656C3313.85 291.636 3314.22 290.761 3314.94 290.031C3315.67 289.302 3316.55 288.938 3317.57 288.938C3318.88 288.917 3320.01 288.448 3320.94 287.531C3321.84 286.636 3322.75 285.729 3323.66 284.813C3324.58 283.834 3325.04 282.719 3325.04 281.469C3325.04 280.427 3325.4 279.542 3326.13 278.813C3326.86 278.084 3327.75 277.719 3328.79 277.719H3381.04ZM3438.26 277.719C3440.99 277.719 3443.48 278.396 3445.73 279.75C3448 281.084 3449.8 282.886 3451.13 285.156C3452.49 287.406 3453.17 289.906 3453.17 292.656H3445.7C3445.7 290.677 3444.97 288.917 3443.51 287.375C3441.99 285.917 3440.24 285.188 3438.26 285.188H3400.92C3399.6 285.209 3398.48 285.677 3397.54 286.594C3396.65 287.49 3395.74 288.396 3394.82 289.313C3393.91 290.292 3393.45 291.406 3393.45 292.656V315.063C3393.45 317.042 3394.18 318.802 3395.63 320.344C3397.09 321.781 3398.85 322.511 3400.92 322.531C3425.81 322.531 3438.26 322.531 3438.26 322.531C3439.55 322.511 3440.67 322.052 3441.6 321.156C3442.52 320.24 3443.43 319.334 3444.32 318.438C3445.26 317.459 3445.73 316.334 3445.73 315.063C3445.73 314.042 3446.09 313.167 3446.82 312.438C3447.55 311.709 3448.43 311.344 3449.45 311.344C3450.47 311.344 3451.34 311.709 3452.07 312.438C3452.8 313.167 3453.17 314.042 3453.17 315.063C3453.17 316.104 3452.8 316.99 3452.07 317.719C3451.34 318.448 3450.47 318.813 3449.45 318.813C3448.13 318.813 3447.01 319.271 3446.07 320.188C3445.18 321.104 3444.27 322.011 3443.35 322.906C3442.44 323.886 3441.98 325.011 3441.98 326.281C3441.98 327.302 3441.61 328.177 3440.88 328.906C3440.16 329.636 3439.28 330 3438.26 330H3400.92C3398.17 330 3395.66 329.334 3393.38 328C3391.13 326.646 3389.33 324.844 3387.98 322.594C3386.65 320.323 3385.98 317.813 3385.98 315.063V292.656C3385.98 291.636 3386.34 290.761 3387.07 290.031C3387.8 289.302 3388.68 288.938 3389.7 288.938C3391.01 288.917 3392.13 288.448 3393.07 287.531C3393.97 286.636 3394.87 285.729 3395.79 284.813C3396.71 283.834 3397.17 282.719 3397.17 281.469C3397.17 280.427 3397.53 279.542 3398.26 278.813C3398.99 278.084 3399.87 277.719 3400.92 277.719H3438.26ZM3495.54 285.188H3456.23V277.719H3523.42V285.188H3501.04C3499.73 285.209 3498.61 285.677 3497.67 286.594C3496.77 287.49 3495.87 288.396 3494.95 289.313C3494.05 290.25 3493.6 291.365 3493.57 292.656C3493.57 317.552 3493.57 330 3493.57 330H3486.11V292.656C3486.11 291.636 3486.47 290.761 3487.2 290.031C3487.93 289.302 3488.8 288.938 3489.82 288.938C3491.14 288.917 3492.26 288.448 3493.2 287.531L3495.54 285.188ZM3591.8 277.719V285.188C3556.96 285.188 3539.55 285.188 3539.55 285.188C3538.23 285.209 3537.11 285.677 3536.17 286.594C3535.28 287.49 3534.37 288.396 3533.45 289.313C3532.56 290.25 3532.1 291.365 3532.08 292.656C3532.08 303.927 3532.08 309.563 3532.08 309.563L3534.42 307.219C3535.34 306.24 3535.8 305.125 3535.8 303.875C3535.8 302.834 3536.16 301.948 3536.89 301.219C3537.62 300.49 3538.5 300.125 3539.55 300.125H3591.8V307.594H3539.55C3538.23 307.615 3537.11 308.084 3536.17 309C3535.28 309.896 3534.37 310.802 3533.45 311.719C3532.54 312.698 3532.08 313.844 3532.08 315.156C3532.14 317.24 3532.88 318.99 3534.3 320.406C3535.73 321.823 3537.48 322.531 3539.55 322.531H3591.8V330H3539.55C3535.59 330 3532.07 328.542 3528.98 325.625C3526.07 322.542 3524.61 319.021 3524.61 315.063V292.656C3524.61 291.636 3524.97 290.761 3525.7 290.031C3526.43 289.302 3527.31 288.938 3528.33 288.938C3529.64 288.917 3530.76 288.448 3531.7 287.531C3532.6 286.636 3533.5 285.729 3534.42 284.813C3535.34 283.834 3535.8 282.719 3535.8 281.469C3535.8 280.427 3536.16 279.542 3536.89 278.813C3537.62 278.084 3538.5 277.719 3539.55 277.719H3591.8ZM3649.02 330H3596.74V277.719H3649.02C3651.77 277.719 3654.27 278.396 3656.52 279.75C3658.77 281.084 3660.56 282.886 3661.89 285.156C3663.25 287.406 3663.92 289.906 3663.92 292.656V315.063C3663.92 316.104 3663.56 316.99 3662.83 317.719C3662.1 318.448 3661.23 318.813 3660.2 318.813C3658.89 318.813 3657.77 319.271 3656.83 320.188C3655.93 321.104 3655.04 322.011 3654.14 322.906C3653.2 323.886 3652.74 325.011 3652.74 326.281C3652.74 327.302 3652.37 328.177 3651.64 328.906C3650.91 329.636 3650.04 330 3649.02 330ZM3656.45 315.063C3656.45 300.125 3656.45 292.656 3656.45 292.656C3656.45 290.677 3655.73 288.917 3654.27 287.375C3652.75 285.917 3651 285.188 3649.02 285.188H3604.2V322.531H3649.02C3650.31 322.511 3651.42 322.052 3652.36 321.156C3653.28 320.24 3654.18 319.334 3655.08 318.438C3656 317.459 3656.45 316.334 3656.45 315.063ZM3739.93 322.531C3741.22 322.511 3742.33 322.042 3743.27 321.125C3744.19 320.229 3745.1 319.334 3745.99 318.438C3746.91 317.5 3747.38 316.375 3747.4 315.063V277.719H3754.87V315.063C3754.87 317.125 3755.6 318.886 3757.05 320.344C3758.51 321.802 3760.27 322.531 3762.33 322.531H3777.24C3778.55 322.511 3779.68 322.042 3780.62 321.125C3781.51 320.229 3782.42 319.334 3783.33 318.438C3784.25 317.438 3784.71 316.313 3784.71 315.063V277.719H3792.18V315.063C3792.18 316.084 3791.81 316.959 3791.08 317.688C3790.36 318.417 3789.48 318.781 3788.46 318.781C3787.15 318.802 3786.02 319.271 3785.08 320.188C3784.19 321.084 3783.28 321.99 3782.37 322.906C3781.45 323.886 3780.99 325 3780.99 326.25C3780.99 327.292 3780.63 328.177 3779.9 328.906C3779.17 329.636 3778.28 330 3777.24 330H3762.33C3762.33 330 3762.32 330 3762.3 330C3758.97 329.938 3756.04 328.979 3753.52 327.125C3751 325.271 3749.21 322.834 3748.15 319.813C3747.48 320.479 3746.45 321.511 3745.05 322.906C3744.12 323.886 3743.65 325 3743.65 326.25C3743.65 327.292 3743.28 328.177 3742.55 328.906C3741.82 329.636 3740.95 330 3739.93 330H3724.99C3720.89 329.938 3717.37 328.479 3714.43 325.625C3711.51 322.542 3710.05 319.021 3710.05 315.063C3710.05 290.167 3710.05 277.719 3710.05 277.719H3717.52V315.063C3717.52 317.125 3718.25 318.886 3719.71 320.344C3721.17 321.802 3722.93 322.531 3724.99 322.531H3739.93ZM3812.06 277.719H3849.4C3853.36 277.719 3856.87 279.177 3859.93 282.094C3862.85 285.177 3864.31 288.698 3864.31 292.656V315.063C3864.31 316.104 3863.94 316.99 3863.21 317.719C3862.48 318.448 3861.61 318.813 3860.59 318.813C3859.27 318.834 3858.15 319.292 3857.21 320.188C3856.32 321.104 3855.42 322.011 3854.52 322.906C3853.59 323.886 3853.12 325.011 3853.12 326.281C3853.12 327.302 3852.75 328.177 3852.02 328.906C3851.3 329.636 3850.42 330 3849.4 330H3812.06C3808.1 330 3804.58 328.542 3801.49 325.625C3798.58 322.542 3797.12 319.021 3797.12 315.063V292.656C3797.12 291.636 3797.48 290.761 3798.21 290.031C3798.94 289.302 3799.82 288.938 3800.84 288.938C3802.15 288.917 3803.27 288.448 3804.21 287.531C3805.11 286.636 3806.01 285.729 3806.93 284.813C3807.85 283.834 3808.31 282.719 3808.31 281.469C3808.31 280.427 3808.67 279.542 3809.4 278.813C3810.13 278.084 3811.01 277.719 3812.06 277.719ZM3856.84 315.063C3856.84 300.125 3856.84 292.656 3856.84 292.656C3856.84 290.594 3856.11 288.834 3854.65 287.375C3853.21 285.917 3851.46 285.188 3849.4 285.188C3824.5 285.188 3812.06 285.188 3812.06 285.188C3810.74 285.209 3809.62 285.677 3808.68 286.594C3807.79 287.49 3806.88 288.396 3805.96 289.313C3805.07 290.25 3804.61 291.365 3804.59 292.656C3804.59 307.594 3804.59 315.063 3804.59 315.063C3804.59 317.042 3805.32 318.802 3806.77 320.344C3808.25 321.781 3810.01 322.511 3812.06 322.531H3849.4C3850.69 322.511 3851.81 322.052 3852.74 321.156C3853.66 320.24 3854.57 319.334 3855.46 318.438C3856.38 317.459 3856.84 316.334 3856.84 315.063ZM3876.71 322.531V330H3869.25V277.719H3921.5C3925.48 277.719 3929 279.177 3932.06 282.094C3934.98 285.177 3936.43 288.698 3936.43 292.656V300.125C3936.43 301.167 3936.07 302.052 3935.34 302.781C3934.61 303.511 3933.74 303.875 3932.71 303.875C3931.4 303.896 3930.28 304.354 3929.34 305.25C3927.96 306.646 3926.94 307.688 3926.28 308.375C3929.28 309.417 3931.71 311.219 3933.59 313.781C3935.49 316.323 3936.43 319.24 3936.43 322.531V330H3928.96V322.531C3928.96 320.552 3928.24 318.781 3926.78 317.219C3925.26 315.781 3923.51 315.063 3921.53 315.063H3886.4H3884.18C3882.87 315.084 3881.75 315.552 3880.81 316.469C3879.91 317.365 3879.01 318.261 3878.09 319.156C3877.17 320.156 3876.71 321.281 3876.71 322.531ZM3928.96 300.125C3928.96 295.146 3928.96 292.656 3928.96 292.656C3928.96 290.594 3928.24 288.834 3926.78 287.375C3925.32 285.917 3923.57 285.188 3921.53 285.188H3876.71V317.031L3879.06 314.688C3879.98 313.709 3880.43 312.594 3880.43 311.344C3880.43 310.302 3880.8 309.417 3881.53 308.688C3882.26 307.959 3883.14 307.594 3884.18 307.594C3884.18 307.594 3896.64 307.594 3921.56 307.594C3922.81 307.594 3923.91 307.136 3924.87 306.219C3925.79 305.302 3926.69 304.396 3927.59 303.5C3928.51 302.521 3928.96 301.396 3928.96 300.125ZM3960.06 326.281H3948.84V330H3941.37V277.719H3948.84V300.125C3951.4 300.125 3952.69 300.125 3952.69 300.125C3953.98 300.104 3955.09 299.646 3956.03 298.75L3969.94 284.813C3970.87 283.834 3971.34 282.719 3971.34 281.469C3971.34 280.448 3971.7 279.573 3972.4 278.844C3973.11 278.094 3973.97 277.719 3974.97 277.719H4008.56V285.188H3975.06C3973.77 285.209 3972.65 285.677 3971.72 286.594L3957.81 300.5C3956.87 301.479 3956.4 302.604 3956.4 303.875C3956.4 304.896 3956.04 305.771 3955.31 306.5C3954.58 307.229 3953.71 307.594 3952.69 307.594C3950.12 307.594 3948.84 307.594 3948.84 307.594V318.813C3956.3 318.813 3960.03 318.813 3960.03 318.813C3961.34 318.792 3962.47 318.323 3963.4 317.406C3964.3 316.511 3965.21 315.604 3966.12 314.688C3967.04 313.709 3967.5 312.594 3967.5 311.344C3967.5 310.302 3967.85 309.427 3968.56 308.719C3969.29 308.011 3970.19 307.636 3971.25 307.594H3993.62C3997.6 307.594 4001.12 309.052 4004.19 311.969C4007.1 315.052 4008.56 318.573 4008.56 322.531V330H4001.09V322.531C4001.09 320.469 4000.36 318.709 3998.9 317.25C3997.45 315.792 3995.7 315.063 3993.65 315.063H3971.25C3969.94 315.084 3968.81 315.552 3967.87 316.469C3966.98 317.365 3966.07 318.271 3965.15 319.188C3964.24 320.167 3963.78 321.281 3963.78 322.531C3963.78 323.552 3963.43 324.427 3962.72 325.156C3962.01 325.865 3961.12 326.24 3960.06 326.281Z" fill="white"/>
<path d="M2022.29 340.023C2022.29 357.909 2008.57 371.667 1990.74 371.667L1548 371.667L1548 231.333L1990.74 231.333C2008.57 231.333 2022.29 217.575 2022.29 199.69L2022.29 122.644C2022.29 104.758 2036 91 2053.83 91L2602.17 91C2612.69 91.0403 2633.71 97.4255 2633.71 122.644L2633.71 199.69C2633.71 217.575 2620 231.333 2602.17 231.333L2053.83 231.333C2036 231.333 2022.29 245.092 2022.29 262.977L2022.29 340.023Z" fill="#08060F"/>
<path d="M2129.76 159.125C2130.78 159.125 2131.66 159.49 2132.39 160.219C2133.12 160.948 2133.48 161.834 2133.48 162.875C2133.48 164.125 2133.94 165.24 2134.86 166.219C2135.77 167.136 2136.68 168.042 2137.57 168.938C2138.51 169.854 2139.64 170.323 2140.95 170.344C2141.97 170.344 2142.83 170.698 2143.54 171.406C2144.27 172.115 2144.65 173 2144.67 174.063V189H2092.42C2089.67 189 2087.16 188.334 2084.89 187C2082.64 185.646 2080.83 183.844 2079.48 181.594C2078.15 179.323 2077.48 176.813 2077.48 174.063H2084.95C2084.95 176.042 2085.68 177.802 2087.14 179.344C2088.68 180.823 2090.44 181.563 2092.42 181.563L2137.2 181.531C2137.2 176.552 2137.2 174.063 2137.2 174.063C2137.2 172.75 2136.74 171.636 2135.82 170.719C2134.93 169.802 2134.02 168.896 2133.11 168C2132.17 167.084 2131.05 166.615 2129.76 166.594H2092.42C2091.38 166.594 2090.49 166.229 2089.76 165.5C2089.03 164.771 2088.67 163.896 2088.67 162.875C2088.67 161.604 2088.21 160.479 2087.29 159.5C2086.38 158.604 2085.47 157.698 2084.57 156.781C2083.64 155.886 2082.52 155.427 2081.23 155.406C2081.21 155.406 2081.2 155.406 2081.2 155.406C2080.18 155.406 2079.3 155.042 2078.57 154.313C2077.84 153.584 2077.48 152.698 2077.48 151.656V136.719H2129.76C2133.72 136.719 2137.23 138.177 2140.29 141.094C2143.21 144.177 2144.67 147.698 2144.67 151.656H2137.2C2137.2 149.677 2136.47 147.917 2135.01 146.375C2133.49 144.917 2131.74 144.188 2129.76 144.188H2084.95C2084.95 149.167 2084.95 151.656 2084.95 151.656C2084.95 152.927 2085.41 154.052 2086.32 155.031C2087.24 155.927 2088.15 156.834 2089.04 157.75C2089.98 158.646 2091.11 159.104 2092.42 159.125C2117.31 159.125 2129.76 159.125 2129.76 159.125ZM2216.8 136.719V144.188C2181.96 144.188 2164.55 144.188 2164.55 144.188C2163.23 144.209 2162.11 144.677 2161.17 145.594C2160.27 146.49 2159.37 147.396 2158.45 148.313C2157.56 149.25 2157.1 150.365 2157.08 151.656C2157.08 162.927 2157.08 168.563 2157.08 168.563L2159.42 166.219C2160.34 165.24 2160.8 164.125 2160.8 162.875C2160.8 161.834 2161.16 160.948 2161.89 160.219C2162.62 159.49 2163.5 159.125 2164.55 159.125H2216.8V166.594H2164.55C2163.23 166.615 2162.11 167.084 2161.17 168C2160.27 168.896 2159.37 169.802 2158.45 170.719C2157.53 171.698 2157.08 172.844 2157.08 174.156C2157.14 176.24 2157.88 177.99 2159.3 179.406C2160.73 180.823 2162.48 181.531 2164.55 181.531H2216.8V189H2164.55C2160.59 189 2157.07 187.542 2153.98 184.625C2151.07 181.542 2149.61 178.021 2149.61 174.063V151.656C2149.61 150.636 2149.97 149.761 2150.7 149.031C2151.43 148.302 2152.31 147.938 2153.33 147.938C2154.64 147.917 2155.76 147.448 2156.7 146.531C2157.6 145.636 2158.5 144.729 2159.42 143.813C2160.34 142.834 2160.8 141.719 2160.8 140.469C2160.8 139.427 2161.16 138.542 2161.89 137.813C2162.62 137.084 2163.5 136.719 2164.55 136.719H2216.8ZM2274.02 189H2236.67C2232.71 189 2229.19 187.542 2226.11 184.625C2223.19 181.542 2221.74 178.021 2221.74 174.063V136.719H2229.2V174.063C2229.2 176.042 2229.93 177.802 2231.39 179.344C2232.85 180.781 2234.61 181.511 2236.67 181.531H2274.02C2275.31 181.511 2276.42 181.052 2277.36 180.156C2278.28 179.24 2279.18 178.334 2280.08 177.438C2281.02 176.459 2281.49 175.334 2281.49 174.063C2281.49 173.042 2281.85 172.167 2282.58 171.438C2283.31 170.709 2284.18 170.344 2285.2 170.344C2286.22 170.344 2287.1 170.709 2287.83 171.438C2288.56 172.167 2288.92 173.042 2288.92 174.063C2288.92 175.104 2288.56 175.99 2287.83 176.719C2287.1 177.448 2286.22 177.813 2285.2 177.813C2283.89 177.813 2282.77 178.271 2281.83 179.188C2280.93 180.104 2280.04 181.011 2279.14 181.906C2278.2 182.886 2277.74 184.011 2277.74 185.281C2277.74 186.302 2277.37 187.177 2276.64 187.906C2275.91 188.636 2275.04 189 2274.02 189ZM2361.05 136.719V144.188C2326.22 144.188 2308.8 144.188 2308.8 144.188C2307.49 144.209 2306.36 144.677 2305.43 145.594C2304.53 146.49 2303.62 147.396 2302.71 148.313C2301.81 149.25 2301.35 150.365 2301.33 151.656C2301.33 162.927 2301.33 168.563 2301.33 168.563L2303.68 166.219C2304.59 165.24 2305.05 164.125 2305.05 162.875C2305.05 161.834 2305.41 160.948 2306.14 160.219C2306.87 159.49 2307.76 159.125 2308.8 159.125H2361.05V166.594H2308.8C2307.49 166.615 2306.36 167.084 2305.43 168C2304.53 168.896 2303.62 169.802 2302.71 170.719C2301.79 171.698 2301.33 172.844 2301.33 174.156C2301.39 176.24 2302.13 177.99 2303.55 179.406C2304.99 180.823 2306.74 181.531 2308.8 181.531H2361.05V189H2308.8C2304.84 189 2301.32 187.542 2298.24 184.625C2295.32 181.542 2293.86 178.021 2293.86 174.063V151.656C2293.86 150.636 2294.23 149.761 2294.96 149.031C2295.69 148.302 2296.56 147.938 2297.58 147.938C2298.89 147.917 2300.02 147.448 2300.96 146.531C2301.85 145.636 2302.76 144.729 2303.68 143.813C2304.59 142.834 2305.05 141.719 2305.05 140.469C2305.05 139.427 2305.41 138.542 2306.14 137.813C2306.87 137.084 2307.76 136.719 2308.8 136.719H2361.05ZM2418.27 136.719C2421 136.719 2423.49 137.396 2425.74 138.75C2428.01 140.084 2429.81 141.886 2431.15 144.156C2432.5 146.406 2433.18 148.906 2433.18 151.656H2425.71C2425.71 149.677 2424.98 147.917 2423.52 146.375C2422 144.917 2420.25 144.188 2418.27 144.188H2380.93C2379.62 144.209 2378.49 144.677 2377.55 145.594C2376.66 146.49 2375.75 147.396 2374.83 148.313C2373.92 149.292 2373.46 150.406 2373.46 151.656V174.063C2373.46 176.042 2374.19 177.802 2375.65 179.344C2377.1 180.781 2378.87 181.511 2380.93 181.531C2405.82 181.531 2418.27 181.531 2418.27 181.531C2419.56 181.511 2420.68 181.052 2421.62 180.156C2422.53 179.24 2423.44 178.334 2424.33 177.438C2425.27 176.459 2425.74 175.334 2425.74 174.063C2425.74 173.042 2426.1 172.167 2426.83 171.438C2427.56 170.709 2428.44 170.344 2429.46 170.344C2430.48 170.344 2431.35 170.709 2432.08 171.438C2432.81 172.167 2433.18 173.042 2433.18 174.063C2433.18 175.104 2432.81 175.99 2432.08 176.719C2431.35 177.448 2430.48 177.813 2429.46 177.813C2428.15 177.813 2427.02 178.271 2426.08 179.188C2425.19 180.104 2424.28 181.011 2423.37 181.906C2422.45 182.886 2421.99 184.011 2421.99 185.281C2421.99 186.302 2421.63 187.177 2420.9 187.906C2420.17 188.636 2419.29 189 2418.27 189H2380.93C2378.18 189 2375.67 188.334 2373.4 187C2371.15 185.646 2369.34 183.844 2367.99 181.594C2366.66 179.323 2365.99 176.813 2365.99 174.063V151.656C2365.99 150.636 2366.35 149.761 2367.08 149.031C2367.81 148.302 2368.69 147.938 2369.71 147.938C2371.02 147.917 2372.15 147.448 2373.08 146.531C2373.98 145.636 2374.89 144.729 2375.8 143.813C2376.72 142.834 2377.18 141.719 2377.18 140.469C2377.18 139.427 2377.54 138.542 2378.27 137.813C2379 137.084 2379.89 136.719 2380.93 136.719H2418.27ZM2475.56 144.188H2436.24V136.719H2503.43V144.188H2481.06C2479.74 144.209 2478.62 144.677 2477.68 145.594C2476.78 146.49 2475.88 147.396 2474.96 148.313C2474.07 149.25 2473.61 150.365 2473.59 151.656C2473.59 176.552 2473.59 189 2473.59 189H2466.12V151.656C2466.12 150.636 2466.48 149.761 2467.21 149.031C2467.94 148.302 2468.82 147.938 2469.84 147.938C2471.15 147.917 2472.27 147.448 2473.21 146.531L2475.56 144.188ZM2571.81 136.719V144.188C2536.97 144.188 2519.56 144.188 2519.56 144.188C2518.25 144.209 2517.12 144.677 2516.18 145.594C2515.29 146.49 2514.38 147.396 2513.46 148.313C2512.57 149.25 2512.11 150.365 2512.09 151.656C2512.09 162.927 2512.09 168.563 2512.09 168.563L2514.43 166.219C2515.35 165.24 2515.81 164.125 2515.81 162.875C2515.81 161.834 2516.17 160.948 2516.9 160.219C2517.63 159.49 2518.52 159.125 2519.56 159.125H2571.81V166.594H2519.56C2518.25 166.615 2517.12 167.084 2516.18 168C2515.29 168.896 2514.38 169.802 2513.46 170.719C2512.55 171.698 2512.09 172.844 2512.09 174.156C2512.15 176.24 2512.89 177.99 2514.31 179.406C2515.75 180.823 2517.5 181.531 2519.56 181.531H2571.81V189H2519.56C2515.6 189 2512.08 187.542 2509 184.625C2506.08 181.542 2504.62 178.021 2504.62 174.063V151.656C2504.62 150.636 2504.98 149.761 2505.71 149.031C2506.44 148.302 2507.32 147.938 2508.34 147.938C2509.65 147.917 2510.78 147.448 2511.71 146.531C2512.61 145.636 2513.52 144.729 2514.43 143.813C2515.35 142.834 2515.81 141.719 2515.81 140.469C2515.81 139.427 2516.17 138.542 2516.9 137.813C2517.63 137.084 2518.52 136.719 2519.56 136.719H2571.81ZM2629.03 189H2576.75V136.719H2629.03C2631.78 136.719 2634.28 137.396 2636.53 138.75C2638.78 140.084 2640.57 141.886 2641.9 144.156C2643.26 146.406 2643.94 148.906 2643.94 151.656V174.063C2643.94 175.104 2643.57 175.99 2642.84 176.719C2642.11 177.448 2641.24 177.813 2640.22 177.813C2638.9 177.813 2637.78 178.271 2636.84 179.188C2635.95 180.104 2635.05 181.011 2634.15 181.906C2633.22 182.886 2632.75 184.011 2632.75 185.281C2632.75 186.302 2632.38 187.177 2631.65 187.906C2630.92 188.636 2630.05 189 2629.03 189ZM2636.47 174.063C2636.47 159.125 2636.47 151.656 2636.47 151.656C2636.47 149.677 2635.74 147.917 2634.28 146.375C2632.76 144.917 2631.01 144.188 2629.03 144.188H2584.22V181.531H2629.03C2630.32 181.511 2631.44 181.052 2632.37 180.156C2633.29 179.24 2634.2 178.334 2635.09 177.438C2636.01 176.459 2636.47 175.334 2636.47 174.063ZM2719.94 181.531C2721.23 181.511 2722.35 181.042 2723.28 180.125C2724.2 179.229 2725.11 178.334 2726 177.438C2726.92 176.5 2727.39 175.375 2727.41 174.063V136.719H2734.88V174.063C2734.88 176.125 2735.61 177.886 2737.07 179.344C2738.52 180.802 2740.28 181.531 2742.35 181.531H2757.25C2758.57 181.511 2759.69 181.042 2760.63 180.125C2761.52 179.229 2762.43 178.334 2763.35 177.438C2764.26 176.438 2764.72 175.313 2764.72 174.063V136.719H2772.19V174.063C2772.19 175.084 2771.83 175.959 2771.1 176.688C2770.37 177.417 2769.49 177.781 2768.47 177.781C2767.16 177.802 2766.03 178.271 2765.1 179.188C2764.2 180.084 2763.29 180.99 2762.38 181.906C2761.46 182.886 2761 184 2761 185.25C2761 186.292 2760.64 187.177 2759.91 187.906C2759.18 188.636 2758.29 189 2757.25 189H2742.35C2742.35 189 2742.34 189 2742.32 189C2738.98 188.938 2736.05 187.979 2733.53 186.125C2731.01 184.271 2729.22 181.834 2728.16 178.813C2727.49 179.479 2726.46 180.511 2725.07 181.906C2724.13 182.886 2723.66 184 2723.66 185.25C2723.66 186.292 2723.29 187.177 2722.57 187.906C2721.84 188.636 2720.96 189 2719.94 189H2705C2700.9 188.938 2697.38 187.479 2694.44 184.625C2691.52 181.542 2690.07 178.021 2690.07 174.063C2690.07 149.167 2690.07 136.719 2690.07 136.719H2697.53V174.063C2697.53 176.125 2698.26 177.886 2699.72 179.344C2701.18 180.802 2702.94 181.531 2705 181.531H2719.94ZM2792.07 136.719H2829.41C2833.37 136.719 2836.88 138.177 2839.94 141.094C2842.86 144.177 2844.32 147.698 2844.32 151.656V174.063C2844.32 175.104 2843.95 175.99 2843.22 176.719C2842.49 177.448 2841.62 177.813 2840.6 177.813C2839.29 177.834 2838.16 178.292 2837.22 179.188C2836.33 180.104 2835.43 181.011 2834.54 181.906C2833.6 182.886 2833.13 184.011 2833.13 185.281C2833.13 186.302 2832.77 187.177 2832.04 187.906C2831.31 188.636 2830.43 189 2829.41 189H2792.07C2788.11 189 2784.59 187.542 2781.51 184.625C2778.59 181.542 2777.13 178.021 2777.13 174.063V151.656C2777.13 150.636 2777.49 149.761 2778.22 149.031C2778.95 148.302 2779.83 147.938 2780.85 147.938C2782.16 147.917 2783.29 147.448 2784.22 146.531C2785.12 145.636 2786.03 144.729 2786.94 143.813C2787.86 142.834 2788.32 141.719 2788.32 140.469C2788.32 139.427 2788.68 138.542 2789.41 137.813C2790.14 137.084 2791.03 136.719 2792.07 136.719ZM2836.85 174.063C2836.85 159.125 2836.85 151.656 2836.85 151.656C2836.85 149.594 2836.12 147.834 2834.66 146.375C2833.22 144.917 2831.47 144.188 2829.41 144.188C2804.52 144.188 2792.07 144.188 2792.07 144.188C2790.76 144.209 2789.63 144.677 2788.69 145.594C2787.8 146.49 2786.89 147.396 2785.97 148.313C2785.08 149.25 2784.62 150.365 2784.6 151.656C2784.6 166.594 2784.6 174.063 2784.6 174.063C2784.6 176.042 2785.33 177.802 2786.79 179.344C2788.27 180.781 2790.03 181.511 2792.07 181.531H2829.41C2830.7 181.511 2831.82 181.052 2832.76 180.156C2833.67 179.24 2834.58 178.334 2835.47 177.438C2836.39 176.459 2836.85 175.334 2836.85 174.063ZM2856.73 181.531V189H2849.26V136.719H2901.51C2905.49 136.719 2909.01 138.177 2912.07 141.094C2914.99 144.177 2916.45 147.698 2916.45 151.656V159.125C2916.45 160.167 2916.08 161.052 2915.35 161.781C2914.62 162.511 2913.75 162.875 2912.73 162.875C2911.41 162.896 2910.29 163.354 2909.35 164.25C2907.98 165.646 2906.96 166.688 2906.29 167.375C2909.29 168.417 2911.73 170.219 2913.6 172.781C2915.5 175.323 2916.45 178.24 2916.45 181.531V189H2908.98V181.531C2908.98 179.552 2908.25 177.781 2906.79 176.219C2905.27 174.781 2903.52 174.063 2901.54 174.063H2866.41H2864.2C2862.88 174.084 2861.76 174.552 2860.82 175.469C2859.92 176.365 2859.02 177.261 2858.1 178.156C2857.18 179.156 2856.73 180.281 2856.73 181.531ZM2908.98 159.125C2908.98 154.146 2908.98 151.656 2908.98 151.656C2908.98 149.594 2908.25 147.834 2906.79 146.375C2905.33 144.917 2903.58 144.188 2901.54 144.188H2856.73V176.031L2859.07 173.688C2859.99 172.709 2860.45 171.594 2860.45 170.344C2860.45 169.302 2860.81 168.417 2861.54 167.688C2862.27 166.959 2863.15 166.594 2864.2 166.594C2864.2 166.594 2876.65 166.594 2901.57 166.594C2902.82 166.594 2903.92 166.136 2904.88 165.219C2905.8 164.302 2906.71 163.396 2907.6 162.5C2908.52 161.521 2908.98 160.396 2908.98 159.125ZM2940.07 185.281H2928.85V189H2921.39V136.719H2928.85V159.125C2931.42 159.125 2932.7 159.125 2932.7 159.125C2933.99 159.104 2935.1 158.646 2936.04 157.75L2949.95 143.813C2950.89 142.834 2951.35 141.719 2951.35 140.469C2951.35 139.448 2951.71 138.573 2952.42 137.844C2953.12 137.094 2953.98 136.719 2954.98 136.719H2988.57V144.188H2955.07C2953.78 144.209 2952.67 144.677 2951.73 145.594L2937.82 159.5C2936.89 160.479 2936.42 161.604 2936.42 162.875C2936.42 163.896 2936.05 164.771 2935.32 165.5C2934.59 166.229 2933.72 166.594 2932.7 166.594C2930.14 166.594 2928.85 166.594 2928.85 166.594V177.813C2936.31 177.813 2940.04 177.813 2940.04 177.813C2941.35 177.792 2942.48 177.323 2943.42 176.406C2944.31 175.511 2945.22 174.604 2946.14 173.688C2947.05 172.709 2947.51 171.594 2947.51 170.344C2947.51 169.302 2947.86 168.427 2948.57 167.719C2949.3 167.011 2950.2 166.636 2951.26 166.594H2973.64C2977.61 166.594 2981.14 168.052 2984.2 170.969C2987.11 174.052 2988.57 177.573 2988.57 181.531V189H2981.1V181.531C2981.1 179.469 2980.37 177.709 2978.92 176.25C2977.46 174.792 2975.71 174.063 2973.67 174.063H2951.26C2949.95 174.084 2948.82 174.552 2947.89 175.469C2946.99 176.365 2946.08 177.271 2945.17 178.188C2944.25 179.167 2943.79 180.281 2943.79 181.531C2943.79 182.552 2943.44 183.427 2942.73 184.156C2942.02 184.865 2941.14 185.24 2940.07 185.281Z" fill="white"/>
</g>
<defs>
<clipPath id="clip0_301_173">
<rect width="2041" height="462" fill="white"/>
</clipPath>
<clipPath id="clip1_301_173">
<rect width="2041" height="462" fill="white" transform="translate(2041)"/>
</clipPath>
</defs>
</svg>
