<svg width="552" height="468" viewBox="0 0 552 468" fill="none" xmlns="http://www.w3.org/2000/svg">
<path fill-rule="evenodd" clip-rule="evenodd" d="M551.951 15C551.951 6.71573 545.235 0 536.951 0H47.3214C39.0372 0 32.3214 6.71575 32.3214 15V251.972C32.3214 256.861 29.939 261.443 25.937 264.251L6.38445 277.97C2.38247 280.778 0 285.36 0 290.249V453C0 461.284 6.71572 468 15 468H447.504C451 468 454.387 466.779 457.079 464.547L546.525 390.375C549.962 387.525 551.951 383.293 551.951 378.829V15ZM10 371.971C10 370.569 11.0784 369.49 12.4804 369.49H18.5196C19.9216 369.49 21 370.569 21 371.971V377.794C21 379.196 22.0784 380.275 23.4804 380.275H29.5196C30.9216 380.275 32 381.353 32 382.755V388.578C32 389.98 30.9216 391.059 29.5196 391.059H23.4804C22.0784 391.059 21 389.98 21 388.578V382.755C21 381.353 19.9216 380.275 18.5196 380.275H12.4804C11.0784 380.275 10 379.196 10 377.794L10 371.971ZM12.4804 395C11.0784 395 10 396.078 10 397.48V403.304C10 404.706 11.0784 405.784 12.4804 405.784H18.5196C19.9216 405.784 21 406.863 21 408.265L21 414.088C21 415.49 22.0784 416.569 23.4804 416.569H29.5196C30.9216 416.569 32 415.49 32 414.088V408.265C32 406.863 30.9216 405.784 29.5196 405.784H23.4804C22.0784 405.784 21 404.706 21 403.304V397.48C21 396.078 19.9216 395 18.5196 395H12.4804ZM10 346.808C10 345.406 11.0784 344.328 12.4804 344.328H18.5196C19.9216 344.328 21 345.406 21 346.808L21 352.632C21 354.034 22.0784 355.112 23.4804 355.112H29.5196C30.9216 355.112 32 356.191 32 357.593L32 363.416C32 364.818 30.9216 365.897 29.5196 365.897H23.4804C22.0784 365.897 21 364.818 21 363.416V357.593C21 356.191 19.9216 355.112 18.5196 355.112H12.4804C11.0784 355.112 10 354.034 10 352.632V346.808ZM12.4804 319.164C11.0784 319.164 10 320.243 10 321.645L10 327.468C10 328.87 11.0784 329.948 12.4804 329.948H18.5196C19.9216 329.948 21 331.027 21 332.429V338.252C21 339.654 22.0784 340.733 23.4804 340.733H29.5196C30.9216 340.733 32 339.654 32 338.252V332.429C32 331.027 30.9216 329.948 29.5196 329.948H23.4804C22.0784 329.948 21 328.87 21 327.468V321.645C21 320.243 19.9216 319.164 18.5196 319.164H12.4804ZM10 296.48C10 295.078 11.0784 294 12.4804 294H18.5196C19.9216 294 21 295.078 21 296.48V302.304C21 303.706 22.0784 304.784 23.4804 304.784H29.5196C30.9216 304.784 32 305.863 32 307.265V313.088C32 314.49 30.9216 315.569 29.5196 315.569H23.4804C22.0784 315.569 21 314.49 21 313.088V307.265C21 305.863 19.9216 304.784 18.5196 304.784H12.4804C11.0784 304.784 10 303.706 10 302.304L10 296.48ZM522.48 234.49C521.078 234.49 520 235.569 520 236.971V242.794C520 244.196 521.078 245.275 522.48 245.275H528.52C529.922 245.275 531 246.353 531 247.755V253.578C531 254.98 532.078 256.059 533.48 256.059H539.52C540.922 256.059 542 254.98 542 253.578V247.755C542 246.353 540.922 245.275 539.52 245.275H533.48C532.078 245.275 531 244.196 531 242.794V236.971C531 235.569 529.922 234.49 528.52 234.49H522.48ZM520 262.48C520 261.078 521.078 260 522.48 260H528.52C529.922 260 531 261.078 531 262.48V268.304C531 269.706 532.078 270.784 533.48 270.784H539.52C540.922 270.784 542 271.863 542 273.265V279.088C542 280.49 540.922 281.569 539.52 281.569H533.48C532.078 281.569 531 280.49 531 279.088V273.265C531 271.863 529.922 270.784 528.52 270.784H522.48C521.078 270.784 520 269.706 520 268.304V262.48ZM522.48 209.328C521.078 209.328 520 210.406 520 211.808V217.632C520 219.034 521.078 220.112 522.48 220.112H528.52C529.922 220.112 531 221.191 531 222.593V228.416C531 229.818 532.078 230.897 533.48 230.897H539.52C540.922 230.897 542 229.818 542 228.416V222.593C542 221.191 540.922 220.112 539.52 220.112H533.48C532.078 220.112 531 219.034 531 217.632V211.808C531 210.406 529.922 209.328 528.52 209.328H522.48ZM520 186.645C520 185.243 521.078 184.164 522.48 184.164H528.52C529.922 184.164 531 185.243 531 186.645V192.468C531 193.87 532.078 194.948 533.48 194.948H539.52C540.922 194.948 542 196.027 542 197.429V203.252C542 204.654 540.922 205.733 539.52 205.733H533.48C532.078 205.733 531 204.654 531 203.252V197.429C531 196.027 529.922 194.948 528.52 194.948H522.48C521.078 194.948 520 193.87 520 192.468V186.645ZM522.48 159C521.078 159 520 160.078 520 161.48V167.304C520 168.706 521.078 169.784 522.48 169.784H528.52C529.922 169.784 531 170.863 531 172.265V178.088C531 179.49 532.078 180.569 533.48 180.569H539.52C540.922 180.569 542 179.49 542 178.088V172.265C542 170.863 540.922 169.784 539.52 169.784H533.48C532.078 169.784 531 168.706 531 167.304V161.48C531 160.078 529.922 159 528.52 159H522.48Z" fill="white"/>
</svg>
